{"glyphs":{"0":{"ha":578,"x_min":0,"x_max":0,"o":"m 289 -6 b 500 206 404 -6 500 89 l 500 678 b 289 889 500 794 404 889 b 78 678 172 889 78 794 l 78 206 b 289 -6 78 89 172 -6 z m 289 800 b 411 678 356 800 411 744 l 411 206 b 289 83 411 138 356 83 b 167 206 221 83 167 138 l 167 678 b 289 800 167 744 221 800 z "},"1":{"ha":578,"x_min":0,"x_max":0,"o":"m 186 646 l 278 738 l 278 39 b 322 -6 278 13 296 -6 b 367 39 346 -6 367 13 l 367 844 b 339 886 367 865 357 879 b 290 876 322 892 303 889 l 124 710 b 111 678 115 700 111 690 b 124 646 111 665 115 656 b 156 633 133 638 143 633 b 186 646 168 633 178 638 z "},"2":{"ha":578,"x_min":0,"x_max":0,"o":"m 106 722 b 167 739 126 710 154 718 b 239 796 182 767 207 786 b 331 785 271 804 301 800 b 389 713 360 769 379 744 b 381 621 399 681 396 650 l 89 65 b 90 21 81 51 81 36 b 128 0 97 7 110 0 l 439 0 b 483 44 463 0 483 18 b 439 89 483 71 463 89 l 201 89 b 350 372 228 139 292 261 b 458 579 383 438 419 506 b 474 739 485 631 490 685 b 374 863 458 793 422 836 b 215 881 325 889 269 896 b 89 783 160 867 118 835 b 106 722 76 763 85 735 z "},"3":{"ha":578,"x_min":0,"x_max":0,"o":"m 285 88 b 147 144 231 72 175 96 b 86 161 135 165 107 172 b 69 100 65 149 57 121 b 307 1 117 17 215 -24 b 464 206 401 28 464 110 l 464 289 b 382 456 464 357 432 417 b 464 622 432 494 464 554 l 464 678 b 307 882 464 774 401 856 b 69 783 214 908 118 865 b 86 722 57 763 65 735 b 147 739 107 710 135 718 b 285 796 175 788 231 811 b 375 678 339 781 375 733 l 375 622 b 253 500 375 554 319 500 b 208 456 226 500 208 482 b 253 411 208 429 226 411 b 375 289 319 411 375 356 l 375 206 b 285 88 375 150 339 103 z "},"4":{"ha":578,"x_min":0,"x_max":0,"o":"m 103 189 l 336 189 l 336 39 b 381 -6 336 13 354 -6 b 425 39 407 -6 425 13 l 425 189 l 492 189 b 536 233 518 189 536 207 b 492 278 536 260 518 278 l 425 278 l 425 428 b 381 472 425 454 407 472 b 336 428 354 472 336 454 l 336 278 l 164 278 b 263 589 178 325 222 463 b 339 831 286 663 313 743 b 342 844 340 833 342 838 b 311 886 342 865 332 879 b 254 858 288 896 264 881 l 60 247 b 67 207 56 232 57 219 b 103 189 76 194 88 189 z "},"5":{"ha":578,"x_min":0,"x_max":0,"o":"m 132 399 b 182 419 153 393 172 401 b 319 476 210 468 265 492 b 410 358 374 461 410 414 l 410 206 b 319 88 410 150 374 103 b 182 144 265 72 210 96 b 121 161 169 165 142 172 b 104 100 100 149 93 121 b 342 1 151 17 250 -24 b 499 206 436 28 499 110 l 499 358 b 342 563 499 454 436 536 b 188 544 288 576 236 571 l 188 794 l 432 794 b 476 839 458 794 476 813 b 432 883 476 865 458 883 l 143 883 b 99 839 117 883 99 865 l 99 442 b 132 399 99 421 111 404 z "},"6":{"ha":578,"x_min":0,"x_max":0,"o":"m 301 -6 b 513 206 418 -6 513 89 l 513 344 b 301 556 513 461 418 556 b 179 517 256 556 215 543 l 179 678 b 269 796 179 733 215 781 b 407 739 324 811 381 788 b 468 722 419 718 447 710 b 485 783 489 735 497 763 b 247 882 436 865 340 908 b 90 678 154 856 90 774 l 90 206 b 301 -6 90 89 185 -6 z m 301 467 b 424 344 369 467 424 411 l 424 206 b 301 83 424 138 369 83 b 179 206 235 83 179 138 l 179 344 b 301 467 179 411 235 467 z "},"7":{"ha":578,"x_min":0,"x_max":0,"o":"m 118 683 b 163 728 144 683 163 701 l 163 794 l 396 794 b 296 386 385 746 340 560 b 214 50 271 285 243 172 b 213 39 214 46 213 43 b 247 -4 213 18 226 0 b 300 28 271 -10 294 4 l 494 828 b 486 867 499 840 496 854 b 451 883 476 878 465 883 l 118 883 b 74 839 94 883 74 865 l 74 728 b 118 683 74 701 94 683 z "},"8":{"ha":578,"x_min":0,"x_max":0,"o":"m 289 -6 b 500 206 406 -6 500 89 l 500 289 b 419 456 500 357 468 417 b 500 622 468 494 500 554 l 500 678 b 289 889 500 794 406 889 b 78 678 174 889 78 794 l 78 622 b 160 456 78 554 110 494 b 78 289 110 417 78 357 l 78 206 b 289 -6 78 89 174 -6 z m 167 622 l 167 678 b 289 800 167 744 222 800 b 411 678 357 800 411 744 l 411 622 b 289 500 411 554 357 500 b 167 622 222 500 167 554 z m 411 289 l 411 206 b 289 83 411 138 357 83 b 167 206 222 83 167 138 l 167 289 b 289 411 167 356 222 411 b 411 289 357 411 411 356 z "},"9":{"ha":578,"x_min":0,"x_max":0,"o":"m 276 328 b 399 367 324 328 364 340 l 399 206 b 308 88 399 150 363 103 b 171 144 254 72 199 96 b 110 161 158 165 132 172 b 94 100 89 149 82 121 b 332 1 143 17 238 -25 b 488 206 425 28 488 110 l 488 678 b 276 889 488 794 393 889 b 65 678 161 889 65 794 l 65 539 b 276 328 65 422 161 328 z m 276 800 b 399 678 344 800 399 744 l 399 539 b 276 417 399 471 344 417 b 154 539 210 417 154 471 l 154 678 b 276 800 154 744 210 800 z "},"O":{"ha":578,"x_min":0,"x_max":0,"o":"m 289 -6 b 500 206 406 -6 500 89 l 500 678 b 289 889 500 794 406 889 b 78 678 172 889 78 794 l 78 206 b 289 -6 78 89 172 -6 z m 289 800 b 411 678 356 800 411 744 l 411 206 b 289 83 411 138 356 83 b 167 206 221 83 167 138 l 167 678 b 289 800 167 744 221 800 z "},"Q":{"ha":578,"x_min":0,"x_max":0,"o":"m 78 678 l 78 206 b 289 -6 78 89 172 -6 b 354 4 311 -6 333 -1 l 417 -106 b 478 -122 429 -126 457 -133 b 494 -61 499 -110 507 -82 l 431 49 b 500 206 474 88 500 143 l 500 678 b 289 889 500 794 406 889 b 78 678 172 889 78 794 z m 289 800 b 411 678 357 800 411 744 l 411 206 b 289 83 411 138 357 83 b 167 206 222 83 167 138 l 167 678 b 289 800 167 744 222 800 z "},"R":{"ha":578,"x_min":0,"x_max":0,"o":"m 517 594 l 517 672 b 306 883 517 789 422 883 l 139 883 b 94 839 115 883 94 865 l 94 39 b 139 -6 94 13 115 -6 b 183 39 165 -6 183 13 l 183 383 l 297 383 l 431 24 b 488 -3 440 0 465 -12 b 514 54 511 7 524 32 l 386 399 b 517 594 464 431 517 506 z m 306 472 l 183 472 l 183 794 l 306 794 b 428 672 374 794 428 739 l 428 594 b 306 472 428 526 374 472 z "},"S":{"ha":531,"x_min":0,"x_max":0,"o":"m 333 110 b 231 86 303 86 268 79 b 144 147 193 93 163 115 b 83 164 132 169 104 176 b 67 103 63 151 56 125 b 213 -1 99 49 151 11 b 388 39 274 -14 338 1 b 474 196 438 76 468 133 b 413 364 478 258 456 319 l 190 593 b 157 688 165 619 154 651 b 204 775 160 725 175 754 b 303 797 233 797 267 804 b 385 739 339 790 367 771 b 444 722 396 718 424 710 b 461 783 467 735 474 763 b 321 885 429 838 381 872 b 151 846 261 897 200 883 b 68 693 103 808 72 754 b 126 531 63 633 83 574 l 349 303 b 385 203 375 276 389 240 b 333 110 382 164 365 133 z "},"T":{"ha":528,"x_min":0,"x_max":0,"o":"m 444 883 l 83 883 b 39 839 60 883 39 865 b 83 794 39 813 60 794 l 219 794 l 219 39 b 264 -6 219 13 240 -6 b 308 39 290 -6 308 13 l 308 794 l 444 794 b 489 839 471 794 489 813 b 444 883 489 865 471 883 z "},"U":{"ha":589,"x_min":0,"x_max":0,"o":"m 172 206 l 172 844 b 128 889 172 871 151 889 b 83 844 101 889 83 871 l 83 206 b 294 -6 83 89 178 -6 b 506 206 410 -6 506 89 l 506 844 b 461 889 506 871 485 889 b 417 844 435 889 417 871 l 417 206 b 294 83 417 138 361 83 b 172 206 226 83 172 138 z "},"V":{"ha":622,"x_min":0,"x_max":0,"o":"m 47 832 l 269 26 b 313 -6 275 8 292 -6 b 354 26 333 -6 350 8 l 576 832 b 546 888 583 856 569 881 b 492 856 522 893 497 879 b 422 607 468 771 444 688 b 313 206 385 471 339 307 b 201 607 282 307 239 469 b 132 856 179 688 156 771 b 78 888 126 879 101 893 b 47 832 54 881 40 856 z "},"W":{"ha":969,"x_min":0,"x_max":0,"o":"m 53 833 l 247 28 b 290 -6 251 7 269 -6 b 333 28 311 -6 328 7 b 389 260 351 106 371 183 b 485 656 418 389 458 549 b 579 260 511 549 546 389 b 636 28 597 183 617 106 b 679 -6 640 7 658 -6 b 722 28 700 -6 717 7 l 917 833 b 883 888 922 860 907 882 b 831 854 860 893 836 881 b 774 622 811 775 792 699 b 679 228 740 494 706 335 b 583 622 653 335 613 493 b 528 854 565 699 546 775 b 485 889 521 878 507 889 b 442 854 464 889 446 875 b 385 622 422 775 403 699 b 290 228 351 494 317 335 b 194 622 264 335 224 493 b 139 854 176 699 157 775 b 85 888 133 881 108 893 b 53 833 61 882 47 860 z "},"X":{"ha":586,"x_min":0,"x_max":0,"o":"m 65 -1 b 125 19 86 -12 114 -3 l 293 356 l 461 19 b 521 -1 472 -3 499 -12 b 542 58 543 10 551 36 l 343 456 l 528 825 b 507 885 538 846 529 874 b 447 864 485 894 458 886 l 293 556 l 139 864 b 79 885 128 886 100 894 b 58 825 57 874 47 846 l 243 456 l 44 58 b 65 -1 33 36 43 10 z "},"Y":{"ha":558,"x_min":0,"x_max":0,"o":"m 235 444 l 235 39 b 279 -6 235 13 253 -6 b 324 39 306 -6 324 13 l 324 444 l 514 825 b 493 885 525 846 515 874 b 433 864 471 894 444 886 l 279 556 l 125 864 b 65 885 114 886 86 894 b 44 825 43 874 33 846 z "},"Z":{"ha":533,"x_min":0,"x_max":0,"o":"m 56 44 b 63 19 56 38 58 29 b 100 0 71 7 83 0 l 433 0 b 478 44 460 0 478 18 b 433 89 478 71 460 89 l 167 89 b 338 494 189 140 264 324 b 475 822 379 594 425 704 b 478 839 476 829 478 835 b 471 864 478 846 475 854 b 433 883 463 876 450 883 l 100 883 b 56 839 74 883 56 865 b 100 794 56 813 74 794 l 367 794 b 196 388 344 742 267 557 b 60 61 154 288 108 179 b 56 44 57 56 56 50 z "},"N":{"ha":667,"x_min":0,"x_max":0,"o":"m 538 -4 b 572 39 558 0 572 18 l 572 844 b 528 889 572 871 554 889 b 483 844 501 889 483 871 l 483 233 b 292 629 432 340 354 500 b 179 864 254 706 217 785 b 129 888 169 882 150 892 b 94 844 108 883 94 865 l 94 39 b 139 -6 94 13 113 -6 b 183 39 165 -6 183 13 l 183 650 b 374 254 235 543 311 383 b 488 19 411 178 449 99 b 538 -4 497 1 517 -10 z "},"M":{"ha":722,"x_min":0,"x_max":0,"o":"m 139 -6 b 183 39 163 -6 183 13 l 183 646 b 276 447 215 575 250 503 b 321 353 292 415 307 383 b 361 328 328 336 342 328 b 401 353 379 328 392 336 b 446 447 415 383 431 415 b 539 646 472 503 506 575 l 539 39 b 583 -6 539 13 557 -6 b 628 39 607 -6 628 13 l 628 844 b 593 888 628 865 614 883 b 543 864 572 892 553 882 b 472 714 519 813 496 763 b 361 476 432 632 388 533 b 250 714 333 533 289 631 b 179 864 226 763 203 813 b 129 888 169 882 150 892 b 94 844 108 883 94 865 l 94 39 b 139 -6 94 13 113 -6 z "},"L":{"ha":483,"x_min":0,"x_max":0,"o":"m 139 0 l 417 0 b 461 44 440 0 461 18 b 417 89 461 71 440 89 l 183 89 l 183 844 b 139 889 183 871 163 889 b 94 844 113 889 94 871 l 94 44 b 139 0 94 18 113 0 z "},"K":{"ha":585,"x_min":0,"x_max":0,"o":"m 540 58 l 321 515 l 536 818 b 526 881 551 839 547 865 b 464 871 506 896 479 892 l 183 476 l 183 844 b 139 889 183 871 165 889 b 94 844 115 889 94 871 l 94 39 b 139 -6 94 13 115 -6 b 183 39 165 -6 183 13 l 183 324 l 261 432 l 461 19 b 519 -1 471 -3 497 -12 b 540 58 542 10 551 36 z "},"J":{"ha":463,"x_min":0,"x_max":0,"o":"m 374 206 l 374 844 b 329 889 374 871 353 889 b 285 844 303 889 285 871 l 285 206 b 224 100 285 163 261 121 b 161 83 204 89 183 83 b 101 100 140 83 119 89 b 40 83 79 113 53 104 b 57 22 28 63 35 35 b 163 -6 89 4 125 -6 b 268 22 200 -6 236 4 b 374 206 333 60 374 129 z "},"I":{"ha":278,"x_min":0,"x_max":0,"o":"m 139 -6 b 183 39 165 -6 183 13 l 183 844 b 139 889 183 871 165 889 b 94 844 115 889 94 871 l 94 39 b 139 -6 94 13 115 -6 z "},"H":{"ha":611,"x_min":0,"x_max":0,"o":"m 428 844 l 428 500 l 183 500 l 183 844 b 139 889 183 871 165 889 b 94 844 115 889 94 871 l 94 39 b 139 -6 94 13 115 -6 b 183 39 165 -6 183 13 l 183 411 l 428 411 l 428 39 b 472 -6 428 13 449 -6 b 517 39 499 -6 517 13 l 517 844 b 472 889 517 871 499 889 b 428 844 449 889 428 871 z "},"G":{"ha":572,"x_min":0,"x_max":0,"o":"m 78 678 l 78 206 b 289 -6 78 89 172 -6 b 500 206 406 -6 500 89 l 500 428 b 456 472 500 454 482 472 l 317 472 b 272 428 293 472 272 454 b 317 383 272 401 293 383 l 411 383 l 411 206 b 289 83 411 138 357 83 b 167 206 222 83 167 138 l 167 678 b 258 796 167 733 204 781 b 394 739 313 811 368 788 b 456 722 407 718 435 710 b 472 783 478 735 485 763 b 235 882 424 865 328 908 b 78 678 142 856 78 774 z "},"F":{"ha":500,"x_min":0,"x_max":0,"o":"m 139 0 b 183 44 165 0 183 18 l 183 411 l 389 411 b 433 456 415 411 433 429 b 389 500 433 482 415 500 l 183 500 l 183 794 l 417 794 b 461 839 443 794 461 813 b 417 883 461 865 443 883 l 139 883 b 94 839 115 883 94 865 l 94 44 b 139 0 94 18 115 0 z "},"E":{"ha":511,"x_min":0,"x_max":0,"o":"m 94 839 l 94 44 b 139 0 94 18 113 0 l 417 0 b 461 44 443 0 461 18 b 417 89 461 71 443 89 l 183 89 l 183 411 l 389 411 b 433 456 415 411 433 429 b 389 500 433 482 415 500 l 183 500 l 183 794 l 417 794 b 461 839 443 794 461 813 b 417 883 461 865 443 883 l 139 883 b 94 839 113 883 94 865 z "},"D":{"ha":594,"x_min":0,"x_max":0,"o":"m 306 883 l 139 883 b 94 839 113 883 94 865 l 94 44 b 139 0 94 18 113 0 l 306 0 b 517 211 422 0 517 94 l 517 672 b 306 883 517 789 422 883 z m 428 672 l 428 211 b 306 89 428 143 374 89 l 183 89 l 183 794 l 306 794 b 428 672 374 794 428 739 z "},"C":{"ha":535,"x_min":0,"x_max":0,"o":"m 235 1 b 472 100 326 -24 425 17 b 456 161 483 121 476 149 b 394 144 435 172 407 165 b 257 88 367 96 311 72 b 167 206 203 103 167 150 l 167 678 b 257 796 167 733 203 781 b 394 739 311 811 367 788 b 456 722 407 718 435 710 b 472 783 476 735 483 763 b 235 882 424 865 328 908 b 78 678 140 856 78 774 l 78 206 b 235 1 78 110 140 28 z "},"B":{"ha":594,"x_min":0,"x_max":0,"o":"m 94 839 l 94 44 b 139 0 94 18 113 0 l 306 0 b 517 211 422 0 517 94 l 517 289 b 435 456 517 357 485 417 b 517 622 485 494 517 554 l 517 672 b 306 883 517 789 422 883 l 139 883 b 94 839 113 883 94 865 z m 428 289 l 428 211 b 306 89 428 143 372 89 l 183 89 l 183 411 l 306 411 b 428 289 372 411 428 356 z m 428 672 l 428 622 b 306 500 428 554 372 500 l 183 500 l 183 794 l 306 794 b 428 672 372 794 428 739 z "},"A":{"ha":600,"x_min":0,"x_max":0,"o":"m 565 50 l 343 856 b 300 889 338 876 321 889 b 257 856 279 889 263 876 l 35 50 b 65 -4 28 26 42 3 b 121 26 92 -11 114 3 b 133 72 125 40 129 56 b 165 189 143 101 150 140 l 435 189 b 467 72 447 140 457 101 b 479 26 471 56 475 40 b 533 -4 486 3 510 -11 b 565 50 560 3 572 26 z m 410 278 l 190 278 b 300 678 228 415 271 578 b 410 278 326 578 372 415 z "},"u":{"ha":544,"x_min":0,"x_max":0,"o":"m 267 3 l 406 3 b 447 44 429 3 447 21 l 447 594 b 406 636 447 618 429 636 b 364 594 382 636 364 618 l 364 86 l 267 86 b 169 183 213 86 169 129 l 169 594 b 128 636 169 618 151 636 b 86 594 104 636 86 618 l 86 183 b 267 3 86 83 167 3 z "},"v":{"ha":514,"x_min":0,"x_max":0,"o":"m 50 582 l 217 26 b 257 -3 222 10 239 -3 b 297 26 275 -3 292 10 l 464 582 b 436 635 471 604 458 628 b 383 607 414 640 390 628 l 338 453 b 257 183 311 365 279 261 b 176 453 233 261 203 365 l 131 607 b 79 635 124 628 100 640 b 50 582 57 628 44 604 z "},"w":{"ha":747,"x_min":0,"x_max":0,"o":"m 54 585 l 193 29 b 233 -3 200 8 213 -3 b 274 29 254 -3 269 8 b 308 165 286 75 297 119 b 372 422 329 243 351 339 b 438 165 393 339 417 243 b 471 29 449 119 460 75 b 511 -3 478 8 490 -3 b 551 29 532 -3 547 8 l 690 585 b 661 635 696 607 683 629 b 610 604 638 640 615 626 b 576 468 599 558 588 514 b 511 211 556 390 532 293 b 447 468 490 293 468 390 b 413 604 436 514 425 558 b 372 636 408 625 393 636 b 332 604 351 636 339 625 b 299 468 321 558 310 514 b 233 211 278 390 254 293 b 169 468 213 293 190 390 b 135 604 158 514 147 558 b 85 635 129 626 107 640 b 54 585 63 629 49 607 z "},"x":{"ha":500,"x_min":0,"x_max":0,"o":"m 75 3 b 132 18 96 -8 121 -3 l 250 235 l 369 18 b 426 3 381 -3 406 -8 b 443 58 447 14 454 38 l 299 322 l 438 574 b 421 631 449 594 442 619 b 364 614 400 642 375 635 l 250 408 l 138 614 b 81 631 126 635 101 642 b 64 574 60 619 53 594 l 203 322 l 58 58 b 75 3 47 38 54 14 z "},"y":{"ha":513,"x_min":0,"x_max":0,"o":"m 69 -281 b 178 -244 110 -281 146 -268 b 243 -151 208 -222 231 -192 l 296 26 l 463 582 b 435 635 469 604 457 628 b 383 607 413 640 389 628 l 256 183 l 129 607 b 78 635 122 628 100 640 b 50 582 56 628 43 604 l 213 39 l 163 -128 b 69 -197 150 -171 113 -197 b 28 -239 46 -197 28 -215 b 69 -281 28 -262 46 -281 z "},"z":{"ha":478,"x_min":0,"x_max":0,"o":"m 58 44 b 64 22 58 36 60 29 b 100 3 71 10 83 3 l 378 3 b 419 44 400 3 419 21 b 378 86 419 68 400 86 l 168 86 b 310 364 190 133 254 256 b 414 569 342 428 376 496 b 419 589 418 576 419 582 b 413 611 419 596 417 604 b 378 631 406 624 393 631 l 100 631 b 58 589 76 631 58 613 b 100 547 58 565 76 547 l 310 547 b 167 269 285 500 222 376 b 63 64 135 206 100 138 b 58 44 60 57 58 50 z "},"t":{"ha":411,"x_min":0,"x_max":0,"o":"m 78 547 l 147 547 l 147 178 b 328 -3 147 78 228 -3 b 369 39 351 -3 369 15 b 328 81 369 63 351 81 b 231 178 274 81 231 124 l 231 547 l 328 547 b 369 589 351 547 369 565 b 328 631 369 613 351 631 l 231 631 l 231 872 b 189 914 231 896 213 914 b 147 872 165 914 147 896 l 147 631 l 78 631 b 36 589 54 631 36 613 b 78 547 36 565 54 547 z "},"s":{"ha":457,"x_min":0,"x_max":0,"o":"m 281 104 b 207 82 258 85 233 78 b 143 125 179 86 158 101 b 86 140 132 146 107 151 b 71 83 65 129 60 104 b 194 -1 97 38 140 8 b 336 43 246 -8 297 6 b 392 181 375 78 396 126 b 319 311 388 235 363 279 l 190 401 b 154 464 168 417 156 438 b 181 531 153 490 161 513 b 250 551 200 549 224 556 b 310 511 276 547 297 533 b 367 496 321 490 346 485 b 382 553 388 507 393 532 b 263 635 356 597 313 625 b 125 592 213 642 163 626 b 71 458 88 558 67 510 b 142 333 75 408 99 363 l 271 242 b 308 175 294 225 307 203 b 281 104 311 147 301 124 z "},"r":{"ha":415,"x_min":0,"x_max":0,"o":"m 139 -3 b 181 39 163 -3 181 15 l 181 547 l 278 547 b 326 535 294 547 311 543 b 383 550 347 522 372 529 b 368 607 394 571 389 594 b 278 631 339 622 310 631 l 139 631 b 97 589 115 631 97 613 l 97 39 b 139 -3 97 15 115 -3 z "},"q":{"ha":539,"x_min":0,"x_max":0,"o":"m 261 3 l 358 3 l 358 -239 b 400 -281 358 -262 376 -281 b 442 -239 422 -281 442 -262 l 442 589 b 400 631 442 613 422 631 l 261 631 b 81 450 161 631 81 550 l 81 183 b 261 3 81 83 161 3 z m 261 547 l 358 547 l 358 86 l 261 86 b 164 183 207 86 164 129 l 164 450 b 261 547 164 504 207 547 z "},"p":{"ha":539,"x_min":0,"x_max":0,"o":"m 139 -281 b 181 -239 161 -281 181 -262 l 181 3 l 278 3 b 458 183 376 3 458 83 l 458 450 b 278 631 458 550 376 631 l 139 631 b 97 589 115 631 97 613 l 97 -239 b 139 -281 97 -262 115 -281 z m 375 450 l 375 183 b 278 86 375 129 332 86 l 181 86 l 181 547 l 278 547 b 375 450 332 547 375 504 z "},"o":{"ha":522,"x_min":0,"x_max":0,"o":"m 261 -3 b 442 178 360 -3 442 78 l 442 456 b 261 636 442 556 360 636 b 81 456 161 636 81 556 l 81 178 b 261 -3 81 78 161 -3 z m 261 553 b 358 456 315 553 358 510 l 358 178 b 261 81 358 124 315 81 b 164 178 207 81 164 124 l 164 456 b 261 553 164 510 207 553 z "},"n":{"ha":544,"x_min":0,"x_max":0,"o":"m 139 -3 b 181 39 161 -3 181 15 l 181 547 l 278 547 b 375 450 332 547 375 504 l 375 39 b 417 -3 375 15 393 -3 b 458 39 439 -3 458 15 l 458 450 b 278 631 458 550 376 631 l 139 631 b 97 589 115 631 97 613 l 97 39 b 139 -3 97 15 115 -3 z "},"m":{"ha":822,"x_min":0,"x_max":0,"o":"m 181 547 l 375 547 l 375 39 b 417 -3 375 15 393 -3 b 458 39 439 -3 458 15 l 458 547 l 556 547 b 653 450 610 547 653 504 l 653 39 b 694 -3 653 15 671 -3 b 736 39 717 -3 736 15 l 736 450 b 556 631 736 550 654 631 l 139 631 b 97 589 115 631 97 613 l 97 39 b 139 -3 97 15 115 -3 b 181 39 161 -3 181 15 z "},"l":{"ha":278,"x_min":0,"x_max":0,"o":"m 169 3 b 226 18 190 -8 215 -3 b 211 75 239 39 232 64 b 176 135 190 88 176 108 l 176 872 b 135 914 176 896 158 914 b 93 872 113 914 93 896 l 93 135 b 169 3 93 81 124 31 z "},"k":{"ha":528,"x_min":0,"x_max":0,"o":"m 481 58 l 306 378 l 475 567 b 472 625 490 583 489 610 b 413 622 454 640 428 639 l 181 363 l 181 872 b 139 914 181 896 161 914 b 97 872 115 914 97 896 l 97 39 b 139 -3 97 15 115 -3 b 181 39 161 -3 181 15 l 181 238 l 247 311 l 407 18 b 464 3 418 -3 443 -8 b 481 58 485 14 492 38 z "},"j":{"ha":289,"x_min":0,"x_max":0,"o":"m 150 747 b 206 803 182 747 206 771 b 150 858 206 835 182 858 b 94 803 118 858 94 835 b 150 747 94 771 118 747 z m 11 -281 b 192 -100 111 -281 192 -200 l 192 594 b 150 636 192 618 174 636 b 108 594 128 636 108 618 l 108 -100 b 11 -197 108 -154 65 -197 b -31 -239 -11 -197 -31 -215 b 11 -281 -31 -262 -11 -281 z "},"i":{"ha":278,"x_min":0,"x_max":0,"o":"m 139 747 b 194 803 171 747 194 771 b 139 858 194 835 171 858 b 83 803 107 858 83 835 b 139 747 83 771 107 747 z m 181 39 l 181 594 b 139 636 181 618 163 636 b 97 594 117 636 97 618 l 97 39 b 139 -3 97 15 117 -3 b 181 39 163 -3 181 15 z "},"h":{"ha":544,"x_min":0,"x_max":0,"o":"m 139 -3 b 181 39 163 -3 181 15 l 181 547 l 278 547 b 375 450 332 547 375 504 l 375 39 b 417 -3 375 15 394 -3 b 458 39 440 -3 458 15 l 458 450 b 278 631 458 550 378 631 l 181 631 l 181 872 b 139 914 181 896 163 914 b 97 872 117 914 97 896 l 97 39 b 139 -3 97 15 117 -3 z "},"g":{"ha":533,"x_min":0,"x_max":0,"o":"m 261 3 l 358 3 l 358 -100 b 299 -190 358 -139 336 -175 b 193 -169 261 -206 221 -197 b 163 -157 185 -161 175 -157 b 133 -169 151 -157 142 -161 b 121 -197 125 -176 121 -186 b 133 -228 121 -210 125 -219 b 331 -267 188 -279 263 -294 b 442 -100 399 -239 442 -174 l 442 589 b 400 631 442 613 424 631 l 261 631 b 81 450 161 631 81 550 l 81 183 b 261 3 81 83 161 3 z m 261 547 l 358 547 l 358 86 l 261 86 b 164 183 207 86 164 129 l 164 450 b 261 547 164 504 207 547 z "},"f":{"ha":411,"x_min":0,"x_max":0,"o":"m 78 547 l 147 547 l 147 39 b 189 -3 147 15 165 -3 b 231 39 213 -3 231 15 l 231 547 l 328 547 b 369 589 351 547 369 565 b 328 631 369 613 351 631 l 231 631 l 231 733 b 328 831 231 788 274 831 b 369 872 351 831 369 849 b 328 914 369 896 351 914 b 147 733 228 914 147 833 l 147 631 l 78 631 b 36 589 54 631 36 613 b 78 547 36 565 54 547 z "},"e":{"ha":511,"x_min":0,"x_max":0,"o":"m 192 11 b 389 50 260 -17 338 -1 b 401 79 397 58 401 68 b 389 108 401 92 397 101 b 358 121 381 117 371 121 b 329 108 347 121 338 117 b 224 88 301 81 261 72 b 164 178 186 103 164 139 l 164 275 l 400 275 b 442 317 424 275 442 293 l 442 456 b 261 636 442 556 361 636 b 81 456 161 636 81 556 l 81 178 b 192 11 81 104 124 39 z m 261 553 b 358 456 315 553 358 510 l 358 358 l 164 358 l 164 456 b 261 553 164 510 207 553 z "},"d":{"ha":539,"x_min":0,"x_max":0,"o":"m 261 3 l 400 3 b 442 44 422 3 442 21 l 442 872 b 400 914 442 896 422 914 b 358 872 376 914 358 896 l 358 631 l 261 631 b 81 450 161 631 81 550 l 81 183 b 261 3 81 83 161 3 z m 261 547 l 358 547 l 358 86 l 261 86 b 164 183 207 86 164 129 l 164 450 b 261 547 164 504 207 547 z "},"c":{"ha":456,"x_min":0,"x_max":0,"o":"m 192 11 b 389 50 260 -17 335 -1 b 400 79 396 58 400 68 b 389 108 400 92 396 101 b 358 121 381 117 371 121 b 329 108 347 121 338 117 b 224 88 301 81 261 72 b 164 178 186 103 164 139 l 164 456 b 224 546 164 494 186 531 b 329 524 261 561 301 553 b 358 513 338 517 347 513 b 389 524 371 513 381 517 b 400 553 396 532 400 542 b 389 583 400 565 396 575 b 192 622 335 635 260 650 b 81 456 124 594 81 529 l 81 178 b 192 11 81 104 124 39 z "},"b":{"ha":539,"x_min":0,"x_max":0,"o":"m 139 3 l 278 3 b 458 183 376 3 458 83 l 458 450 b 278 631 458 550 376 631 l 181 631 l 181 872 b 139 914 181 896 161 914 b 97 872 115 914 97 896 l 97 44 b 139 3 97 21 115 3 z m 181 547 l 278 547 b 375 450 332 547 375 504 l 375 183 b 278 86 375 129 332 86 l 181 86 z "},"a":{"ha":489,"x_min":0,"x_max":0,"o":"m 319 364 l 222 364 b 42 183 122 364 42 283 b 222 3 42 83 122 3 l 361 3 b 403 44 383 3 403 21 l 403 458 b 293 622 403 531 360 594 b 99 583 226 650 150 635 b 86 554 90 576 86 567 b 99 525 86 543 90 533 b 128 513 107 517 117 513 b 158 525 140 513 150 517 b 261 546 185 553 224 561 b 319 458 296 531 319 497 z m 125 183 b 222 281 125 238 168 281 l 319 281 l 319 86 l 222 86 b 125 183 168 86 125 129 z "},".":{"ha":267,"x_min":0,"x_max":0,"o":"m 75 53 b 133 -6 75 21 101 -6 b 192 53 165 -6 192 21 b 133 111 192 85 165 111 b 75 53 101 111 75 85 z "},"@":{"ha":1061,"x_min":0,"x_max":0,"o":"m 846 756 b 531 886 761 839 651 886 b 217 756 413 886 301 839 b 86 442 133 671 86 560 l 86 192 b 217 -124 86 71 133 -39 b 531 -253 301 -207 413 -253 l 683 -253 b 725 -211 707 -253 725 -235 b 683 -169 725 -189 707 -169 l 531 -169 b 276 -64 435 -169 344 -132 b 169 192 206 4 169 93 l 169 442 b 276 696 169 538 206 628 b 531 803 344 767 435 803 b 786 696 629 803 718 767 b 892 442 854 628 892 538 l 892 183 b 794 86 892 129 849 86 l 697 86 l 697 458 b 585 622 697 531 653 596 b 390 583 518 649 442 635 b 378 554 382 576 378 567 b 389 525 378 543 382 533 b 418 513 397 517 407 513 b 449 524 431 513 440 517 b 554 544 476 551 517 560 b 614 458 592 529 614 496 l 614 364 l 517 364 b 336 183 418 364 336 282 b 517 3 336 83 418 3 l 794 3 b 975 183 894 3 975 83 l 975 442 b 846 756 975 560 929 671 z m 419 183 b 517 281 419 238 463 281 l 614 281 l 614 86 l 517 86 b 419 183 463 86 419 129 z "},"å":{"ha":489,"x_min":0,"x_max":0,"o":"m 367 817 b 250 933 367 882 315 933 b 133 817 185 933 133 882 b 250 700 133 751 185 700 b 367 817 315 700 367 751 z m 200 817 b 250 867 200 844 222 867 b 300 817 278 867 300 844 b 250 767 300 789 278 767 b 200 817 222 767 200 789 z m 319 364 l 222 364 b 42 183 122 364 42 283 b 222 3 42 83 122 3 l 361 3 b 403 44 385 3 403 21 l 403 458 b 293 622 403 531 360 594 b 100 583 226 650 150 635 b 88 554 92 576 88 567 b 100 525 88 543 92 533 b 128 513 107 517 117 513 b 158 525 140 513 150 517 b 261 546 185 553 226 561 b 319 458 299 531 319 497 z m 125 183 b 222 281 125 238 168 281 l 319 281 l 319 86 l 222 86 b 125 183 168 86 125 129 z "},"ö":{"ha":522,"x_min":0,"x_max":0,"o":"m 206 803 b 150 858 206 835 182 858 b 94 803 118 858 94 835 b 150 747 94 771 118 747 b 206 803 182 747 206 771 z m 428 803 b 372 858 428 835 404 858 b 317 803 340 858 317 835 b 372 747 317 771 340 747 b 428 803 404 747 428 771 z m 442 178 l 442 456 b 261 636 442 556 361 636 b 81 456 161 636 81 556 l 81 178 b 261 -3 81 78 161 -3 b 442 178 361 -3 442 78 z m 261 81 b 164 178 207 81 164 124 l 164 456 b 261 553 164 510 207 553 b 358 456 315 553 358 510 l 358 178 b 261 81 358 124 315 81 z "},"Å":{"ha":600,"x_min":0,"x_max":0,"o":"m 419 1094 b 300 1213 419 1160 367 1213 b 182 1094 235 1213 182 1160 b 300 975 182 1029 233 975 b 419 1094 367 975 419 1029 z m 253 1094 b 300 1142 253 1121 274 1142 b 349 1094 326 1142 349 1121 b 300 1046 349 1068 326 1046 b 253 1094 274 1046 253 1068 z m 565 50 l 343 856 b 300 889 338 876 321 889 b 257 856 279 889 263 876 l 35 50 b 65 -4 28 26 42 3 b 121 26 92 -11 114 3 b 133 72 125 40 129 56 b 165 189 143 101 150 140 l 435 189 b 467 72 447 140 457 101 b 479 26 471 56 475 40 b 533 -4 486 3 510 -11 b 565 50 560 3 572 26 z m 410 278 l 190 278 b 300 678 228 415 271 578 b 410 278 326 578 372 415 z "},"Ä":{"ha":600,"x_min":0,"x_max":0,"o":"m 411 1022 b 469 1081 443 1022 469 1049 b 411 1139 469 1113 443 1139 b 353 1081 379 1139 353 1113 b 411 1022 353 1049 379 1022 z m 189 1139 b 131 1081 157 1139 131 1113 b 189 1022 131 1049 157 1022 b 247 1081 221 1022 247 1049 b 189 1139 247 1113 221 1139 z m 565 50 l 343 856 b 300 889 338 876 321 889 b 257 856 279 889 263 876 l 35 50 b 65 -4 28 26 42 3 b 121 26 92 -11 114 3 b 133 72 125 40 129 56 b 165 189 143 101 150 140 l 435 189 b 467 72 447 140 457 101 b 479 26 471 56 475 40 b 533 -4 486 3 510 -11 b 565 50 560 3 572 26 z m 410 278 l 190 278 b 300 678 228 415 271 578 b 410 278 326 578 372 415 z "},"Ö":{"ha":578,"x_min":0,"x_max":0,"o":"m 500 206 l 500 678 b 289 889 500 794 404 889 b 78 678 172 889 78 794 l 78 206 b 289 -6 78 89 172 -6 b 500 206 404 -6 500 89 z m 289 83 b 167 206 221 83 167 138 l 167 678 b 289 800 167 744 221 800 b 411 678 356 800 411 744 l 411 206 b 289 83 411 138 356 83 z m 458 1081 b 400 1139 458 1113 432 1139 b 342 1081 367 1139 342 1113 b 400 1022 342 1049 367 1022 b 458 1081 432 1022 458 1049 z m 236 1081 b 178 1139 236 1113 210 1139 b 119 1081 144 1139 119 1113 b 178 1022 119 1049 144 1022 b 236 1081 210 1022 236 1049 z "},"ä":{"ha":489,"x_min":0,"x_max":0,"o":"m 319 364 l 222 364 b 42 183 122 364 42 283 b 222 3 42 83 122 3 l 361 3 b 403 44 383 3 403 21 l 403 458 b 293 622 403 531 360 594 b 99 583 226 650 150 635 b 88 554 92 576 88 567 b 99 525 88 543 92 533 b 128 513 107 517 117 513 b 158 525 140 513 150 517 b 261 546 185 553 224 561 b 319 458 296 531 319 497 z m 125 183 b 222 281 125 238 168 281 l 319 281 l 319 86 l 222 86 b 125 183 168 86 125 129 z m 306 803 b 361 747 306 771 329 747 b 417 803 393 747 417 771 b 361 858 417 835 393 858 b 306 803 329 858 306 835 z m 139 747 b 194 803 171 747 194 771 b 139 858 194 835 171 858 b 83 803 107 858 83 835 b 139 747 83 771 107 747 z "},"-":{"ha":578,"x_min":0,"x_max":0,"o":"m 500 400 b 456 444 500 426 479 444 l 122 444 b 78 400 96 444 78 426 b 122 356 78 374 96 356 l 456 356 b 500 400 479 356 500 374 z "},"ô":{"ha":522,"x_min":0,"x_max":0,"o":"m 160 715 b 199 746 174 725 186 736 b 261 794 219 763 244 782 b 324 746 276 782 303 763 b 361 715 336 736 349 725 b 417 722 379 703 404 706 b 410 778 432 740 428 765 l 285 875 b 236 875 269 888 253 888 l 111 778 b 104 722 94 765 92 740 b 160 715 119 706 143 703 z m 81 456 l 81 178 b 261 -3 81 78 161 -3 b 442 178 361 -3 442 78 l 442 456 b 261 636 442 556 361 636 b 81 456 161 636 81 556 z m 261 553 b 358 456 315 553 358 510 l 358 178 b 261 81 358 124 315 81 b 164 178 207 81 164 124 l 164 456 b 261 553 164 510 207 553 z "},"ó":{"ha":522,"x_min":0,"x_max":0,"o":"m 161 719 b 219 717 176 703 203 701 l 358 842 b 361 900 375 857 376 883 b 303 903 346 917 319 918 l 164 778 b 161 719 147 763 146 736 z m 261 -3 b 442 178 361 -3 442 78 l 442 456 b 261 636 442 556 361 636 b 81 456 161 636 81 556 l 81 178 b 261 -3 81 78 161 -3 z m 261 553 b 358 456 315 553 358 510 l 358 178 b 261 81 358 124 315 81 b 164 178 207 81 164 124 l 164 456 b 261 553 164 510 207 553 z "},"ò":{"ha":522,"x_min":0,"x_max":0,"o":"m 164 842 l 303 717 b 361 719 319 701 346 703 b 358 778 376 736 375 763 l 219 903 b 161 900 203 918 176 917 b 164 842 144 883 146 857 z m 442 178 l 442 456 b 261 636 442 556 361 636 b 81 456 161 636 81 556 l 81 178 b 261 -3 81 78 161 -3 b 442 178 361 -3 442 78 z m 261 81 b 164 178 207 81 164 124 l 164 456 b 261 553 164 510 207 553 b 358 456 315 553 358 510 l 358 178 b 261 81 358 124 315 81 z "},"õ":{"ha":522,"x_min":0,"x_max":0,"o":"m 169 764 b 199 783 176 776 186 782 b 232 775 211 785 222 782 l 243 767 b 338 744 271 746 303 739 b 419 797 372 750 399 768 b 408 853 432 815 426 840 b 353 842 390 864 365 860 b 324 822 347 831 338 824 b 290 831 311 819 300 822 l 279 839 b 185 861 251 860 219 867 b 103 808 150 856 124 838 b 114 753 92 790 96 765 b 169 764 132 742 157 746 z m 442 178 l 442 456 b 261 636 442 556 361 636 b 81 456 161 636 81 556 l 81 178 b 261 -3 81 78 161 -3 b 442 178 361 -3 442 78 z m 261 81 b 164 178 207 81 164 124 l 164 456 b 261 553 164 510 207 553 b 358 456 315 553 358 510 l 358 178 b 261 81 358 124 315 81 z "},"ñ":{"ha":544,"x_min":0,"x_max":0,"o":"m 369 842 b 340 822 363 829 353 824 b 307 831 328 819 317 822 l 296 839 b 201 861 267 860 235 867 b 119 808 167 856 139 838 b 131 753 107 790 113 765 b 186 764 149 742 174 746 b 214 783 192 775 201 782 b 249 775 226 785 239 782 l 260 767 b 354 744 288 746 319 739 b 436 797 389 750 415 768 b 425 853 447 815 443 840 b 369 842 404 864 382 860 z m 417 -3 b 458 39 439 -3 458 15 l 458 450 b 278 631 458 550 376 631 l 139 631 b 97 589 115 631 97 613 l 97 39 b 139 -3 97 15 115 -3 b 181 39 161 -3 181 15 l 181 547 l 278 547 b 375 450 332 547 375 504 l 375 39 b 417 -3 375 15 393 -3 z "},"ð":{"ha":522,"x_min":0,"x_max":0,"o":"m 442 178 l 442 456 b 378 711 442 546 421 632 b 329 786 363 738 347 763 l 367 811 b 378 867 385 824 390 849 b 322 878 365 885 340 889 l 275 846 b 200 907 250 869 225 890 b 142 896 179 919 154 914 b 153 838 129 875 135 850 b 204 799 171 825 189 814 l 156 767 b 144 711 138 754 133 729 b 200 700 157 693 182 689 l 260 740 b 326 624 288 704 310 665 b 261 636 307 632 285 636 b 81 456 161 636 81 556 l 81 178 b 261 -3 81 78 161 -3 b 442 178 361 -3 442 78 z m 261 81 b 164 178 207 81 164 124 l 164 456 b 261 553 164 510 207 553 b 358 456 315 553 358 510 l 358 178 b 261 81 358 124 315 81 z "},"ï":{"ha":278,"x_min":0,"x_max":0,"o":"m 28 747 b 83 803 60 747 83 771 b 28 858 83 835 60 858 b -28 803 -4 858 -28 835 b 28 747 -28 771 -4 747 z m 250 747 b 306 803 282 747 306 771 b 250 858 306 835 282 858 b 194 803 218 858 194 835 b 250 747 194 771 218 747 z m 97 594 l 97 39 b 139 -3 97 15 115 -3 b 181 39 161 -3 181 15 l 181 594 b 139 636 181 618 161 636 b 97 594 115 636 97 618 z "},"î":{"ha":278,"x_min":0,"x_max":0,"o":"m -17 722 b 39 715 -1 706 22 703 b 78 746 53 725 65 736 b 140 794 99 763 124 782 b 201 746 156 782 181 763 b 240 715 214 736 226 725 b 296 722 258 703 281 706 b 289 778 311 740 307 765 l 164 875 b 139 883 157 881 149 883 b 115 875 131 883 122 881 l -10 778 b -17 722 -26 765 -32 740 z m 182 39 l 182 594 b 140 636 182 618 163 636 b 99 594 117 636 99 618 l 99 39 b 140 -3 99 15 117 -3 b 182 39 163 -3 182 15 z "},"í":{"ha":278,"x_min":0,"x_max":0,"o":"m 97 594 l 97 39 b 139 -3 97 15 115 -3 b 181 39 161 -3 181 15 l 181 594 b 139 636 181 618 161 636 b 97 594 115 636 97 618 z m 267 900 b 208 903 251 917 225 918 l 69 778 b 65 719 51 763 50 736 b 125 717 81 703 107 701 l 264 842 b 267 900 281 857 282 883 z "},"ì":{"ha":278,"x_min":0,"x_max":0,"o":"m 213 719 b 210 778 228 736 226 763 l 71 903 b 11 900 53 918 26 917 b 14 842 -4 883 -3 857 l 153 717 b 213 719 171 701 197 703 z m 97 594 l 97 39 b 139 -3 97 15 117 -3 b 181 39 163 -3 181 15 l 181 594 b 139 636 181 618 163 636 b 97 594 117 636 97 618 z "},"ë":{"ha":511,"x_min":0,"x_max":0,"o":"m 81 456 l 81 178 b 193 11 81 104 125 39 b 389 50 260 -17 338 -1 b 401 79 397 58 401 68 b 389 108 401 92 397 101 b 360 121 382 117 372 121 b 331 108 349 121 339 117 b 225 88 303 81 263 72 b 164 178 188 103 164 139 l 164 275 l 400 275 b 442 317 424 275 442 293 l 442 456 b 261 636 442 556 361 636 b 81 456 163 636 81 556 z m 261 553 b 358 456 315 553 358 510 l 358 358 l 164 358 l 164 456 b 261 553 164 510 207 553 z m 206 803 b 150 858 206 835 182 858 b 94 803 118 858 94 835 b 150 747 94 771 118 747 b 206 803 182 747 206 771 z m 372 747 b 428 803 404 747 428 771 b 372 858 428 835 404 858 b 317 803 340 858 317 835 b 372 747 317 771 340 747 z "},"ı":{"ha":278,"x_min":0,"x_max":0,"o":"m 97 594 l 97 39 b 139 -3 97 15 117 -3 b 181 39 163 -3 181 15 l 181 594 b 139 636 181 618 163 636 b 97 594 117 636 97 618 z "}," ":{"ha":267,"x_min":0,"x_max":0,"o":""}," ":{"ha":267,"x_min":0,"x_max":0,"o":""},"ø":{"ha":536,"x_min":0,"x_max":0,"o":"m 88 456 l 88 178 b 101 108 88 153 92 129 l 39 3 b 54 -51 28 -15 33 -40 b 108 -36 72 -62 97 -57 l 153 39 b 268 -3 185 11 224 -3 b 449 178 368 -3 449 78 l 449 456 b 435 524 449 478 444 500 l 497 631 b 482 685 507 649 503 674 b 428 669 464 694 439 690 l 383 594 b 268 636 351 622 313 636 b 88 456 168 636 88 556 z m 268 81 b 196 114 238 81 214 92 l 365 404 l 365 178 b 268 81 365 124 322 81 z m 268 553 b 340 519 297 553 321 542 l 171 229 l 171 456 b 268 553 171 510 214 553 z "},"ú":{"ha":544,"x_min":0,"x_max":0,"o":"m 225 717 l 364 842 b 368 900 382 857 383 883 b 308 903 353 917 326 918 l 169 778 b 167 719 153 763 151 736 b 225 717 182 703 208 701 z m 267 3 l 406 3 b 447 44 429 3 447 21 l 447 594 b 406 636 447 618 429 636 b 364 594 383 636 364 618 l 364 86 l 267 86 b 169 183 213 86 169 129 l 169 594 b 128 636 169 618 151 636 b 86 594 106 636 86 618 l 86 183 b 267 3 86 83 168 3 z "},"ù":{"ha":544,"x_min":0,"x_max":0,"o":"m 167 900 b 169 842 151 883 153 857 l 308 717 b 368 719 326 701 351 703 b 364 778 383 736 382 763 l 225 903 b 167 900 208 918 182 917 z m 267 3 l 406 3 b 447 44 429 3 447 21 l 447 594 b 406 636 447 618 429 636 b 364 594 383 636 364 618 l 364 86 l 267 86 b 169 183 213 86 169 129 l 169 594 b 128 636 169 618 151 636 b 86 594 106 636 86 618 l 86 183 b 267 3 86 83 168 3 z "},"û":{"ha":544,"x_min":0,"x_max":0,"o":"m 167 715 b 206 746 181 725 193 736 b 267 794 226 763 251 782 b 329 746 282 782 308 763 b 368 715 342 736 354 725 b 424 722 385 703 408 706 b 417 778 439 740 433 765 l 292 875 b 267 883 285 881 276 883 b 243 875 258 883 250 881 l 118 778 b 111 722 101 765 96 740 b 167 715 126 706 149 703 z m 86 594 l 86 183 b 267 3 86 83 168 3 l 406 3 b 447 44 429 3 447 21 l 447 594 b 406 636 447 618 429 636 b 364 594 383 636 364 618 l 364 86 l 267 86 b 169 183 213 86 169 129 l 169 594 b 128 636 169 618 151 636 b 86 594 106 636 86 618 z "},"ü":{"ha":544,"x_min":0,"x_max":0,"o":"m 100 803 b 156 747 100 771 124 747 b 211 803 188 747 211 771 b 156 858 211 835 188 858 b 100 803 124 858 100 835 z m 322 803 b 378 747 322 771 346 747 b 433 803 410 747 433 771 b 378 858 433 835 410 858 b 322 803 346 858 322 835 z m 267 3 l 406 3 b 447 44 429 3 447 21 l 447 594 b 406 636 447 618 429 636 b 364 594 383 636 364 618 l 364 86 l 267 86 b 169 183 213 86 169 129 l 169 594 b 128 636 169 618 151 636 b 86 594 106 636 86 618 l 86 183 b 267 3 86 83 168 3 z "},"ý":{"ha":513,"x_min":0,"x_max":0,"o":"m 156 719 b 215 717 171 703 197 701 l 354 842 b 357 900 371 857 372 883 b 297 903 342 917 315 918 l 158 778 b 156 719 142 763 140 736 z m 257 183 l 129 607 b 78 635 124 628 100 640 b 50 582 56 628 43 604 l 213 39 l 163 -128 b 69 -197 150 -171 113 -197 b 28 -239 47 -197 28 -215 b 69 -281 28 -262 47 -281 b 178 -244 110 -281 146 -268 b 243 -151 210 -221 232 -190 l 296 26 l 463 582 b 435 635 469 604 457 628 b 383 607 413 640 390 628 z "},"þ":{"ha":539,"x_min":0,"x_max":0,"o":"m 181 -239 l 181 -3 l 278 -3 b 458 178 378 -3 458 78 l 458 456 b 278 636 458 556 378 636 l 181 636 l 181 872 b 139 914 181 896 163 914 b 97 872 115 914 97 896 l 97 -239 b 139 -281 97 -262 115 -281 b 181 -239 163 -281 181 -262 z m 181 553 l 278 553 b 375 456 332 553 375 510 l 375 178 b 278 81 375 124 332 81 l 181 81 z "},"ê":{"ha":511,"x_min":0,"x_max":0,"o":"m 193 11 b 389 50 260 -17 338 -1 b 401 79 397 58 401 68 b 389 108 401 92 397 101 b 360 121 382 117 372 121 b 331 108 349 121 339 117 b 225 88 303 81 263 72 b 164 178 188 103 164 139 l 164 275 l 400 275 b 442 317 424 275 442 293 l 442 456 b 261 636 442 556 361 636 b 81 456 163 636 81 556 l 81 178 b 193 11 81 104 125 39 z m 261 553 b 358 456 315 553 358 510 l 358 358 l 164 358 l 164 456 b 261 553 164 510 207 553 z m 161 715 b 200 746 175 725 188 736 b 261 794 221 763 246 782 b 324 746 276 782 303 763 b 363 715 336 736 349 725 b 418 722 379 703 403 706 b 411 778 431 740 428 765 l 286 875 b 261 883 279 881 271 883 b 238 875 253 883 244 881 l 113 778 b 106 722 94 765 90 740 b 161 715 118 706 143 703 z "},"è":{"ha":511,"x_min":0,"x_max":0,"o":"m 389 50 b 401 79 397 58 401 68 b 389 108 401 92 397 101 b 358 121 381 117 371 121 b 331 108 347 121 338 117 b 224 88 303 81 261 72 b 164 178 186 103 164 139 l 164 275 l 400 275 b 442 317 424 275 442 293 l 442 456 b 261 636 442 556 361 636 b 81 456 163 636 81 556 l 81 178 b 192 11 81 104 125 39 b 389 50 260 -17 338 -1 z m 261 553 b 358 456 315 553 358 510 l 358 358 l 164 358 l 164 456 b 261 553 164 510 207 553 z m 358 778 l 219 903 b 161 900 203 918 176 917 b 164 842 146 883 147 857 l 303 717 b 361 719 319 701 346 703 b 358 778 378 736 376 763 z "},"ç":{"ha":460,"x_min":0,"x_max":0,"o":"m 192 622 b 81 456 125 594 81 529 l 81 178 b 192 11 81 104 125 39 b 219 1 200 7 210 4 l 219 -46 b 185 -107 219 -72 207 -94 b 169 -164 164 -118 158 -143 b 226 -179 181 -185 206 -190 b 303 -46 275 -151 303 -100 l 303 1 b 389 50 338 11 365 26 b 401 79 397 58 401 68 b 389 108 401 92 397 101 b 358 121 381 117 371 121 b 331 108 347 121 338 117 b 263 81 310 90 288 81 l 261 81 l 260 81 b 224 88 250 81 238 83 b 164 178 186 103 164 139 l 164 456 b 224 546 164 494 186 531 b 331 524 261 561 303 553 b 358 513 338 517 347 513 b 389 524 371 513 381 517 b 401 553 397 532 401 542 b 389 583 401 565 397 575 b 192 622 338 635 260 650 z "},"é":{"ha":511,"x_min":0,"x_max":0,"o":"m 193 11 b 389 50 260 -17 338 -1 b 401 79 397 58 401 68 b 389 108 401 92 397 101 b 358 121 381 117 371 121 b 331 108 347 121 338 117 b 224 88 303 81 261 72 b 164 178 186 103 164 139 l 164 275 l 400 275 b 442 317 424 275 442 293 l 442 456 b 261 636 442 556 361 636 b 81 456 163 636 81 556 l 81 178 b 193 11 81 104 125 39 z m 261 553 b 358 456 315 553 358 510 l 358 358 l 164 358 l 164 456 b 261 553 164 510 207 553 z m 303 903 l 164 778 b 161 719 147 763 146 736 b 219 717 176 703 203 701 l 358 842 b 363 900 376 857 378 883 b 303 903 346 917 321 918 z "},"æ":{"ha":751,"x_min":0,"x_max":0,"o":"m 363 63 b 432 11 381 39 404 22 b 629 50 500 -17 575 -1 b 640 79 636 58 640 68 b 629 108 640 92 636 101 b 599 121 621 117 611 121 b 569 108 588 121 578 117 b 464 88 542 81 501 72 b 404 178 426 103 404 139 l 404 275 l 640 275 b 682 317 663 275 682 293 l 682 456 b 501 636 682 556 600 636 b 363 571 446 636 396 611 b 292 622 344 594 321 611 b 96 583 225 650 147 635 b 83 553 88 575 83 565 b 96 524 83 542 88 532 b 125 513 104 517 114 513 b 154 524 138 513 147 517 b 261 546 182 553 224 561 b 321 456 299 531 321 494 l 321 358 l 224 358 b 57 247 150 358 85 314 b 96 50 28 179 42 101 b 292 11 147 -1 225 -17 b 363 63 321 22 344 39 z m 404 358 l 404 456 b 501 553 404 510 447 553 b 599 456 556 553 599 510 l 599 358 z m 154 108 b 133 215 126 138 118 178 b 224 275 149 253 183 275 l 321 275 l 321 178 b 261 88 321 139 299 103 b 154 108 224 72 182 81 z "},"ã":{"ha":489,"x_min":0,"x_max":0,"o":"m 222 3 l 361 3 b 403 44 385 3 403 21 l 403 458 b 293 622 403 531 360 594 b 99 583 226 650 150 635 b 88 554 92 576 88 567 b 99 525 88 543 92 533 b 128 513 107 517 117 513 b 158 525 140 513 150 517 b 261 546 185 553 224 561 b 319 458 296 531 319 497 l 319 364 l 222 364 b 42 183 122 364 42 283 b 222 3 42 83 122 3 z m 222 281 l 319 281 l 319 86 l 222 86 b 125 183 168 86 125 129 b 222 281 125 238 168 281 z m 397 853 b 342 842 379 864 354 860 b 313 822 335 829 325 824 b 279 831 300 819 289 822 l 268 839 b 174 861 240 860 208 867 b 92 808 139 856 113 838 b 103 753 81 790 85 765 b 158 764 121 742 146 746 b 188 783 165 776 175 782 b 221 775 200 785 211 782 l 232 767 b 326 744 260 746 292 739 b 408 797 361 750 388 768 b 397 853 419 815 415 840 z "},"â":{"ha":489,"x_min":0,"x_max":0,"o":"m 319 364 l 222 364 b 42 183 122 364 42 283 b 222 3 42 83 122 3 l 361 3 b 403 44 383 3 403 21 l 403 458 b 293 622 403 531 360 594 b 99 583 226 650 150 635 b 88 554 92 576 88 567 b 99 525 88 543 92 533 b 128 513 107 517 117 513 b 158 525 140 513 150 517 b 261 546 185 553 224 561 b 319 458 296 531 319 497 z m 125 183 b 222 281 125 238 168 281 l 319 281 l 319 86 l 222 86 b 125 183 168 86 125 129 z m 225 875 l 100 778 b 93 722 83 765 81 740 b 149 715 108 706 132 703 b 188 746 163 725 175 736 b 250 794 208 763 233 782 b 313 746 265 782 292 763 b 350 715 325 736 338 725 b 406 722 368 703 393 706 b 399 778 421 740 417 765 l 274 875 b 225 875 258 888 242 888 z "},"á":{"ha":489,"x_min":0,"x_max":0,"o":"m 403 44 l 403 458 b 293 622 403 531 360 594 b 99 583 226 650 150 635 b 88 554 92 576 88 567 b 99 525 88 543 92 533 b 128 513 107 517 117 513 b 158 525 140 513 150 517 b 261 546 185 553 224 561 b 319 458 296 531 319 497 l 319 364 l 222 364 b 42 183 122 364 42 283 b 222 3 42 83 122 3 l 361 3 b 403 44 383 3 403 21 z m 125 183 b 222 281 125 238 168 281 l 319 281 l 319 86 l 222 86 b 125 183 168 86 125 129 z m 208 717 l 347 842 b 350 900 364 857 365 883 b 292 903 335 917 308 918 l 153 778 b 149 719 135 763 133 736 b 208 717 165 703 190 701 z "},"à":{"ha":489,"x_min":0,"x_max":0,"o":"m 222 3 l 361 3 b 403 44 383 3 403 21 l 403 458 b 293 622 403 531 360 594 b 99 583 226 650 150 635 b 86 554 90 576 86 567 b 99 525 86 543 90 533 b 128 513 107 517 117 513 b 158 525 140 513 150 517 b 261 546 185 553 224 561 b 319 458 296 531 319 497 l 319 364 l 222 364 b 42 183 122 364 42 283 b 222 3 42 83 122 3 z m 222 281 l 319 281 l 319 86 l 222 86 b 125 183 168 86 125 129 b 222 281 125 238 168 281 z m 347 778 l 208 903 b 149 900 190 918 164 917 b 153 842 133 883 135 857 l 292 717 b 350 719 308 701 335 703 b 347 778 365 736 364 763 z "},"ß":{"ha":594,"x_min":0,"x_max":0,"o":"m 514 206 l 514 428 b 408 608 514 506 471 571 b 457 715 436 638 453 674 b 458 733 458 719 458 726 b 378 883 458 793 428 850 b 193 893 322 921 253 925 b 97 733 133 861 97 800 l 97 39 b 139 -3 97 15 115 -3 b 181 39 161 -3 181 15 l 181 733 b 232 819 181 771 200 801 b 332 814 264 836 300 835 b 375 724 361 793 379 761 b 315 643 371 686 349 658 l 289 633 b 264 586 271 624 260 607 b 306 553 268 565 285 553 b 431 428 376 553 431 499 l 431 206 b 306 81 431 135 376 81 b 264 39 282 81 264 63 b 306 -3 264 15 282 -3 b 514 206 421 -3 514 90 z "},"ÿ":{"ha":513,"x_min":0,"x_max":0,"o":"m 424 803 b 368 858 424 835 400 858 b 313 803 336 858 313 835 b 368 747 313 771 336 747 b 424 803 400 747 424 771 z m 146 747 b 201 803 178 747 201 771 b 146 858 201 835 178 858 b 90 803 114 858 90 835 b 146 747 90 771 114 747 z m 243 -151 l 296 26 l 463 582 b 435 635 469 604 457 628 b 383 607 413 640 390 628 l 257 183 l 129 607 b 78 635 124 628 100 640 b 50 582 56 628 43 604 l 213 39 l 163 -128 b 69 -197 150 -171 113 -197 b 28 -239 47 -197 28 -215 b 69 -281 28 -262 47 -281 b 178 -244 110 -281 146 -268 b 243 -151 210 -221 232 -190 z "},"œ":{"ha":789,"x_min":0,"x_max":0,"o":"m 400 63 b 469 11 418 39 442 22 b 667 50 538 -17 613 -1 b 678 79 674 58 678 68 b 667 108 678 92 674 101 b 636 121 658 117 649 121 b 607 108 625 121 615 117 b 501 88 579 81 539 72 b 442 178 464 103 442 139 l 442 275 l 678 275 b 719 317 700 275 719 293 l 719 456 b 539 636 719 556 638 636 b 400 571 483 636 433 611 b 261 636 367 611 317 636 b 81 456 161 636 81 556 l 81 178 b 261 -3 81 78 161 -3 b 400 63 317 -3 367 22 z m 539 553 b 636 456 593 553 636 510 l 636 358 l 442 358 l 442 456 b 539 553 442 510 485 553 z m 261 81 b 164 178 207 81 164 124 l 164 456 b 261 553 164 510 207 553 b 358 456 315 553 358 510 l 358 178 b 261 81 358 124 315 81 z "},"Ï":{"ha":278,"x_min":0,"x_max":0,"o":"m 308 1081 b 250 1139 308 1113 282 1139 b 192 1081 218 1139 192 1113 b 250 1022 192 1049 218 1022 b 308 1081 282 1022 308 1049 z m 28 1022 b 86 1081 60 1022 86 1049 b 28 1139 86 1113 60 1139 b -31 1081 -4 1139 -31 1113 b 28 1022 -31 1049 -4 1022 z m 139 -6 b 183 39 165 -6 183 13 l 183 844 b 139 889 183 871 165 889 b 94 844 113 889 94 871 l 94 39 b 139 -6 94 13 113 -6 z "},"Î":{"ha":278,"x_min":0,"x_max":0,"o":"m 297 999 b 290 1058 313 1019 308 1043 l 165 1156 b 139 1165 158 1163 149 1165 b 113 1156 129 1165 119 1163 l -12 1058 b -19 999 -31 1043 -35 1019 b 40 992 -4 981 19 976 b 76 1021 53 1001 64 1011 b 139 1068 97 1036 122 1056 b 200 1021 154 1056 179 1036 l 238 992 b 297 999 258 976 282 981 z m 94 844 l 94 39 b 139 -6 94 13 113 -6 b 183 39 165 -6 183 13 l 183 844 b 139 889 183 871 165 889 b 94 844 113 889 94 871 z "},"Ì":{"ha":278,"x_min":0,"x_max":0,"o":"m 238 1058 l 99 1183 b 36 1179 81 1200 53 1197 b 40 1117 19 1161 19 1133 l 179 992 b 242 996 197 975 225 975 b 238 1058 258 1014 256 1042 z m 183 39 l 183 844 b 139 889 183 871 165 889 b 94 844 113 889 94 871 l 94 39 b 139 -6 94 13 113 -6 b 183 39 165 -6 183 13 z "},"Í":{"ha":278,"x_min":0,"x_max":0,"o":"m 94 844 l 94 39 b 139 -6 94 13 113 -6 b 183 39 165 -6 183 13 l 183 844 b 139 889 183 871 165 889 b 94 844 113 889 94 871 z m 36 996 b 99 992 53 975 81 975 l 238 1117 b 242 1179 256 1133 258 1161 b 179 1183 225 1197 197 1200 l 40 1058 b 36 996 19 1042 19 1014 z "},"Ñ":{"ha":667,"x_min":0,"x_max":0,"o":"m 129 888 b 94 844 108 883 94 865 l 94 39 b 139 -6 94 13 115 -6 b 183 39 165 -6 183 13 l 183 650 b 375 254 235 543 313 383 b 488 19 413 178 450 99 b 538 -4 497 1 517 -10 b 572 39 558 0 572 18 l 572 844 b 528 889 572 871 554 889 b 483 844 504 889 483 871 l 483 233 b 293 629 432 340 356 500 b 179 864 256 706 218 785 b 129 888 169 882 150 892 z m 185 1029 b 244 1040 206 1014 229 1019 b 271 1058 251 1050 260 1057 b 303 1051 282 1060 293 1057 l 314 1043 b 411 1019 343 1022 375 1014 b 494 1074 446 1025 474 1043 b 482 1132 507 1094 503 1119 b 424 1121 461 1147 436 1142 b 396 1103 417 1110 407 1104 b 364 1110 385 1100 374 1103 l 353 1118 b 257 1142 326 1139 290 1147 b 174 1088 219 1136 192 1118 b 185 1029 158 1067 164 1042 z "},"Ë":{"ha":511,"x_min":0,"x_max":0,"o":"m 183 794 l 417 794 b 461 839 443 794 461 813 b 417 883 461 865 443 883 l 139 883 b 94 839 113 883 94 865 l 94 44 b 139 0 94 18 113 0 l 417 0 b 461 44 443 0 461 18 b 417 89 461 71 443 89 l 183 89 l 183 411 l 389 411 b 433 456 415 411 433 429 b 389 500 433 482 415 500 l 183 500 z m 331 1081 b 389 1022 331 1049 357 1022 b 447 1081 421 1022 447 1049 b 389 1139 447 1113 421 1139 b 331 1081 357 1139 331 1113 z m 108 1081 b 167 1022 108 1049 135 1022 b 225 1081 199 1022 225 1049 b 167 1139 225 1113 199 1139 b 108 1081 135 1139 108 1113 z "},"Ê":{"ha":511,"x_min":0,"x_max":0,"o":"m 461 44 b 417 89 461 71 440 89 l 183 89 l 183 411 l 389 411 b 433 456 413 411 433 429 b 389 500 433 482 413 500 l 183 500 l 183 794 l 417 794 b 461 839 440 794 461 813 b 417 883 461 865 440 883 l 139 883 b 94 839 113 883 94 865 l 94 44 b 139 0 94 18 113 0 l 417 0 b 461 44 440 0 461 18 z m 119 999 b 178 992 135 981 160 976 l 215 1021 b 278 1068 236 1036 261 1056 b 339 1021 293 1056 318 1036 l 376 992 b 436 999 394 976 421 981 b 428 1058 451 1019 449 1043 l 303 1156 b 276 1165 296 1163 286 1165 b 251 1156 267 1165 258 1163 l 126 1058 b 119 999 108 1043 104 1019 z "},"È":{"ha":511,"x_min":0,"x_max":0,"o":"m 461 44 b 417 89 461 71 440 89 l 183 89 l 183 411 l 389 411 b 433 456 413 411 433 429 b 389 500 433 482 413 500 l 183 500 l 183 794 l 417 794 b 461 839 440 794 461 813 b 417 883 461 865 440 883 l 139 883 b 94 839 113 883 94 865 l 94 44 b 139 0 94 18 113 0 l 417 0 b 461 44 440 0 461 18 z m 178 1117 l 317 992 b 379 996 335 975 364 975 b 376 1058 396 1014 394 1042 l 238 1183 b 175 1179 219 1200 192 1197 b 178 1117 158 1161 160 1133 z "},"É":{"ha":511,"x_min":0,"x_max":0,"o":"m 183 794 l 417 794 b 461 839 440 794 461 813 b 417 883 461 865 440 883 l 139 883 b 94 839 113 883 94 865 l 94 44 b 139 0 94 18 113 0 l 417 0 b 461 44 440 0 461 18 b 417 89 461 71 440 89 l 183 89 l 183 411 l 389 411 b 433 456 413 411 433 429 b 389 500 433 482 413 500 l 183 500 z m 317 1183 l 178 1058 b 175 996 160 1042 158 1014 b 238 992 192 975 219 975 l 376 1117 b 379 1179 394 1133 396 1161 b 317 1183 364 1197 335 1200 z "},"Ç":{"ha":547,"x_min":0,"x_max":0,"o":"m 233 1 b 239 0 235 0 238 0 b 244 -1 240 0 243 0 l 244 -49 b 211 -107 244 -72 232 -94 b 194 -168 189 -119 182 -146 b 254 -183 207 -189 233 -196 b 333 -49 303 -156 333 -104 l 333 -1 b 471 100 389 11 439 46 l 485 124 b 468 185 497 146 490 172 b 408 168 447 197 421 190 l 394 144 b 257 88 367 96 311 72 b 167 206 203 103 167 150 l 167 678 b 257 796 167 733 203 781 b 394 739 311 811 367 788 l 408 715 b 468 699 421 693 447 686 b 485 760 490 711 497 738 l 471 783 b 233 882 422 865 326 908 b 78 678 140 856 78 774 l 78 206 b 233 1 78 110 140 28 z "},"Æ":{"ha":857,"x_min":0,"x_max":0,"o":"m 528 794 l 761 794 b 806 839 788 794 806 813 b 761 883 806 865 788 883 l 426 883 b 385 857 406 883 392 875 l 26 57 b 49 -1 17 35 26 8 b 108 21 71 -11 97 -1 b 129 68 114 36 121 51 b 183 189 142 97 161 139 l 439 189 l 439 44 b 483 0 439 18 460 0 l 761 0 b 806 44 788 0 806 18 b 761 89 806 71 788 89 l 528 89 l 528 411 l 733 411 b 778 456 760 411 778 429 b 733 500 778 482 760 500 l 528 500 z m 439 278 l 224 278 b 439 761 301 457 403 676 z "},"Ã":{"ha":600,"x_min":0,"x_max":0,"o":"m 211 1040 b 238 1058 218 1050 226 1057 b 269 1051 249 1060 260 1057 l 281 1043 b 378 1019 310 1022 342 1014 b 461 1074 413 1025 440 1043 b 449 1132 474 1094 469 1119 b 390 1121 428 1147 403 1142 b 363 1103 383 1110 374 1104 b 332 1110 351 1100 342 1103 l 321 1118 b 224 1142 293 1139 257 1147 b 140 1088 189 1136 161 1118 b 151 1029 128 1067 131 1042 b 211 1040 172 1014 196 1019 z m 565 50 l 343 856 b 300 889 338 876 321 889 b 257 856 279 889 263 876 l 35 50 b 65 -4 28 26 42 3 b 121 26 92 -11 114 3 b 133 72 125 40 129 56 b 165 189 143 101 150 140 l 435 189 b 467 72 447 140 457 101 b 479 26 471 56 475 40 b 533 -4 486 3 510 -11 b 565 50 560 3 572 26 z m 410 278 l 190 278 b 300 678 228 415 271 578 b 410 278 326 578 372 415 z "},"Â":{"ha":600,"x_min":0,"x_max":0,"o":"m 274 1156 l 149 1058 b 142 999 131 1043 126 1019 b 201 992 157 981 183 976 l 239 1021 b 300 1068 260 1036 283 1056 b 361 1021 317 1056 340 1036 l 399 992 b 458 999 419 976 443 981 b 451 1058 474 1019 469 1043 l 326 1156 b 300 1165 319 1163 310 1165 b 274 1156 290 1165 281 1163 z m 565 50 l 343 856 b 300 889 338 876 321 889 b 257 856 279 889 263 876 l 35 50 b 65 -4 28 26 42 3 b 121 26 92 -11 114 3 b 133 72 125 40 129 56 b 165 189 143 101 150 140 l 435 189 b 467 72 447 140 457 101 b 479 26 471 56 475 40 b 533 -4 486 3 510 -11 b 565 50 560 3 572 26 z m 410 278 l 190 278 b 300 678 228 415 271 578 b 410 278 326 578 372 415 z "},"À":{"ha":600,"x_min":0,"x_max":0,"o":"m 197 1179 b 201 1117 181 1161 181 1133 l 340 992 b 403 996 358 975 386 975 b 399 1058 419 1014 417 1042 l 260 1183 b 197 1179 242 1200 214 1197 z m 565 50 l 343 856 b 300 889 338 876 321 889 b 257 856 279 889 263 876 l 35 50 b 65 -4 28 26 42 3 b 121 26 92 -11 114 3 b 133 72 125 40 129 56 b 165 189 143 101 150 140 l 435 189 b 467 72 447 140 457 101 b 479 26 471 56 475 40 b 533 -4 486 3 510 -11 b 565 50 560 3 572 26 z m 410 278 l 190 278 b 300 678 228 415 271 578 b 410 278 326 578 372 415 z "},"Á":{"ha":600,"x_min":0,"x_max":0,"o":"m 340 1183 l 201 1058 b 197 996 181 1042 181 1014 b 260 992 214 975 242 975 l 399 1117 b 403 1179 419 1133 419 1161 b 340 1183 386 1197 358 1200 z m 565 50 l 343 856 b 300 889 338 876 321 889 b 257 856 279 889 263 876 l 35 50 b 65 -4 28 26 42 3 b 121 26 92 -11 114 3 b 133 72 125 40 129 56 b 165 189 143 101 150 140 l 435 189 b 467 72 447 140 457 101 b 479 26 471 56 475 40 b 533 -4 486 3 510 -11 b 565 50 560 3 572 26 z m 410 278 l 190 278 b 300 678 228 415 271 578 b 410 278 326 578 372 415 z "},"Œ":{"ha":828,"x_min":0,"x_max":0,"o":"m 289 -6 b 413 35 335 -6 378 8 b 456 0 417 14 435 0 l 733 0 b 778 44 757 0 778 18 b 733 89 778 71 757 89 l 500 89 l 500 233 l 500 411 l 706 411 b 750 456 729 411 750 429 b 706 500 750 482 729 500 l 500 500 l 500 650 l 500 794 l 733 794 b 778 839 757 794 778 813 b 733 883 778 865 757 883 l 456 883 b 413 849 435 883 417 869 b 289 889 378 875 335 889 b 78 678 172 889 78 794 l 78 206 b 289 -6 78 89 172 -6 z m 289 800 b 411 678 356 800 411 744 l 411 650 l 411 233 l 411 206 b 289 83 411 138 356 83 b 167 206 221 83 167 138 l 167 678 b 289 800 167 744 221 800 z "},"Ó":{"ha":578,"x_min":0,"x_max":0,"o":"m 500 206 l 500 678 b 289 889 500 794 406 889 b 78 678 174 889 78 794 l 78 206 b 289 -6 78 89 174 -6 b 500 206 406 -6 500 89 z m 167 206 l 167 678 b 289 800 167 744 222 800 b 411 678 357 800 411 744 l 411 206 b 289 83 411 138 357 83 b 167 206 222 83 167 138 z m 188 996 b 250 992 203 975 232 975 l 389 1117 b 392 1179 407 1133 408 1161 b 329 1183 375 1197 347 1200 l 190 1058 b 188 996 172 1042 171 1014 z "},"Ò":{"ha":578,"x_min":0,"x_max":0,"o":"m 500 206 l 500 678 b 289 889 500 794 406 889 b 78 678 172 889 78 794 l 78 206 b 289 -6 78 89 172 -6 b 500 206 406 -6 500 89 z m 289 83 b 167 206 222 83 167 138 l 167 678 b 289 800 167 744 222 800 b 411 678 357 800 411 744 l 411 206 b 289 83 411 138 357 83 z m 186 1179 b 190 1117 171 1161 172 1133 l 329 992 b 392 996 347 975 375 975 b 389 1058 408 1014 407 1042 l 250 1183 b 186 1179 232 1200 203 1197 z "},"Ô":{"ha":578,"x_min":0,"x_max":0,"o":"m 500 206 l 500 678 b 289 889 500 794 406 889 b 78 678 174 889 78 794 l 78 206 b 289 -6 78 89 174 -6 b 500 206 406 -6 500 89 z m 167 206 l 167 678 b 289 800 167 744 222 800 b 411 678 357 800 411 744 l 411 206 b 289 83 411 138 357 83 b 167 206 222 83 167 138 z m 190 992 l 228 1021 b 289 1068 249 1036 272 1056 b 351 1021 306 1056 331 1036 l 389 992 b 449 999 407 976 433 981 b 440 1058 464 1019 461 1043 l 315 1156 b 289 1165 308 1163 299 1165 b 264 1156 279 1165 271 1163 l 139 1058 b 131 999 118 1043 115 1019 b 190 992 146 981 172 976 z "},"Õ":{"ha":578,"x_min":0,"x_max":0,"o":"m 500 206 l 500 678 b 289 889 500 794 404 889 b 78 678 172 889 78 794 l 78 206 b 289 -6 78 89 172 -6 b 500 206 404 -6 500 89 z m 289 83 b 167 206 221 83 167 138 l 167 678 b 289 800 167 744 221 800 b 411 678 356 800 411 744 l 411 206 b 289 83 411 138 356 83 z m 128 1088 b 140 1029 115 1067 119 1042 b 199 1040 161 1014 186 1019 b 226 1058 206 1051 215 1057 b 257 1051 238 1060 247 1058 l 268 1043 b 365 1019 296 1022 332 1014 b 449 1074 400 1025 428 1043 b 438 1132 461 1094 458 1119 b 378 1121 417 1147 393 1142 b 351 1103 371 1111 363 1104 b 319 1110 340 1100 329 1103 l 308 1118 b 211 1142 279 1139 247 1147 b 128 1088 176 1136 149 1118 z "},"Ø":{"ha":592,"x_min":0,"x_max":0,"o":"m 565 938 b 508 921 544 949 519 942 l 453 818 b 296 889 414 861 358 889 b 85 678 179 889 85 794 l 85 206 b 90 154 85 186 86 169 l 8 4 b 25 -54 -3 -17 4 -43 b 83 -37 46 -65 71 -58 l 139 65 b 296 -6 176 22 233 -6 b 507 206 413 -6 507 89 l 507 678 b 500 729 507 693 504 711 l 583 879 b 565 938 594 900 586 926 z m 296 800 b 406 732 344 800 385 772 l 174 306 l 174 678 b 296 800 174 744 228 800 z m 296 83 b 186 151 247 83 207 111 l 418 578 l 418 206 b 296 83 418 138 363 83 z "},"Ú":{"ha":589,"x_min":0,"x_max":0,"o":"m 506 206 l 506 844 b 461 889 506 871 488 889 b 417 844 435 889 417 871 l 417 206 b 294 83 417 138 361 83 b 172 206 226 83 172 138 l 172 844 b 128 889 172 871 154 889 b 83 844 101 889 83 871 l 83 206 b 294 -6 83 89 178 -6 b 506 206 411 -6 506 89 z m 254 992 l 393 1117 b 397 1179 411 1133 414 1161 b 335 1183 381 1197 353 1200 l 196 1058 b 192 996 175 1042 175 1014 b 254 992 208 975 236 975 z "},"Ù":{"ha":589,"x_min":0,"x_max":0,"o":"m 294 -6 b 506 206 411 -6 506 89 l 506 844 b 461 889 506 871 488 889 b 417 844 435 889 417 871 l 417 206 b 294 83 417 138 361 83 b 172 206 226 83 172 138 l 172 844 b 128 889 172 871 154 889 b 83 844 101 889 83 871 l 83 206 b 294 -6 83 89 178 -6 z m 393 1058 l 254 1183 b 192 1179 236 1200 208 1197 b 194 1117 175 1161 176 1133 l 333 992 b 397 996 354 975 381 975 b 393 1058 413 1014 411 1042 z "},"Û":{"ha":589,"x_min":0,"x_max":0,"o":"m 83 844 l 83 206 b 294 -6 83 89 179 -6 b 506 206 411 -6 506 89 l 506 844 b 461 889 506 871 488 889 b 417 844 438 889 417 871 l 417 206 b 294 83 417 138 363 83 b 172 206 228 83 172 138 l 172 844 b 128 889 172 871 154 889 b 83 844 104 889 83 871 z m 446 1058 l 321 1156 b 294 1165 314 1163 304 1165 b 269 1156 285 1165 276 1163 l 144 1058 b 136 999 124 1043 121 1019 b 196 992 151 981 178 976 l 233 1021 b 294 1068 254 1036 278 1056 b 357 1021 311 1056 336 1036 l 394 992 b 453 999 413 976 438 981 b 446 1058 468 1019 464 1043 z "},"Ü":{"ha":589,"x_min":0,"x_max":0,"o":"m 294 -6 b 506 206 411 -6 506 89 l 506 844 b 461 889 506 871 488 889 b 417 844 438 889 417 871 l 417 206 b 294 83 417 138 363 83 b 172 206 228 83 172 138 l 172 844 b 128 889 172 871 154 889 b 83 844 104 889 83 871 l 83 206 b 294 -6 83 89 179 -6 z m 347 1081 b 406 1022 347 1049 374 1022 b 464 1081 439 1022 464 1049 b 406 1139 464 1113 439 1139 b 347 1081 374 1139 347 1113 z m 183 1022 b 242 1081 217 1022 242 1049 b 183 1139 242 1113 217 1139 b 125 1081 151 1139 125 1113 b 183 1022 125 1049 151 1022 z "},"Ý":{"ha":558,"x_min":0,"x_max":0,"o":"m 279 556 l 125 864 b 65 885 114 886 88 894 b 46 825 43 874 35 846 l 235 444 l 235 39 b 279 -6 235 13 256 -6 b 324 39 306 -6 324 13 l 324 444 l 514 825 b 494 885 525 846 515 874 b 435 864 472 894 446 886 b 375 747 414 824 393 785 b 279 556 342 682 306 606 z m 240 992 l 379 1117 b 382 1179 397 1133 399 1161 b 319 1183 365 1197 338 1200 l 181 1058 b 176 996 163 1042 161 1014 b 240 992 193 975 219 975 z "},"Ÿ":{"ha":558,"x_min":0,"x_max":0,"o":"m 433 864 l 375 747 b 278 556 343 682 304 606 l 124 864 b 64 885 113 886 86 894 b 44 825 42 874 33 846 l 233 444 l 233 39 b 278 -6 233 13 254 -6 b 322 39 304 -6 322 13 l 322 444 l 513 825 b 493 885 524 846 514 874 b 433 864 471 894 444 886 z m 331 1081 b 389 1022 331 1049 357 1022 b 447 1081 422 1022 447 1049 b 389 1139 447 1113 422 1139 b 331 1081 357 1139 331 1113 z m 167 1022 b 225 1081 200 1022 225 1049 b 167 1139 225 1113 200 1139 b 108 1081 135 1139 108 1113 b 167 1022 108 1049 135 1022 z "},"Ð":{"ha":613,"x_min":0,"x_max":0,"o":"m 113 839 l 113 497 l 46 497 b 4 456 24 497 4 479 b 46 413 4 432 24 413 l 113 413 l 113 44 b 157 0 113 18 133 0 l 324 0 b 535 211 440 0 535 94 l 535 672 b 324 883 535 789 440 883 l 157 883 b 113 839 133 883 113 865 z m 446 672 l 446 211 b 324 89 446 143 392 89 l 201 89 l 201 413 l 296 413 b 339 456 319 413 339 432 b 296 497 339 479 319 497 l 201 497 l 201 794 l 324 794 b 446 672 392 794 446 739 z "},"Þ":{"ha":556,"x_min":0,"x_max":0,"o":"m 306 708 l 183 708 l 183 839 b 139 883 183 865 163 883 b 94 839 113 883 94 865 l 94 39 b 139 -6 94 13 113 -6 b 183 39 163 -6 183 13 l 183 203 l 306 203 b 517 414 421 203 517 297 l 517 497 b 306 708 517 614 421 708 z m 306 292 l 183 292 l 183 619 l 306 619 b 428 497 372 619 428 564 l 428 414 b 306 292 428 346 372 292 z "},"™":{"ha":931,"x_min":0,"x_max":0,"o":"m 558 869 b 511 885 546 885 529 890 b 482 844 493 879 482 863 l 482 428 b 524 385 482 404 500 385 b 567 428 547 385 567 404 l 567 713 b 608 653 582 690 597 669 b 628 625 615 643 621 633 b 663 607 638 613 649 607 b 697 625 676 607 688 613 b 717 653 703 633 710 643 b 760 713 728 669 744 690 l 760 428 b 801 385 760 404 778 385 b 844 428 825 385 844 404 l 844 844 b 815 885 844 863 832 879 b 767 869 796 890 779 885 b 729 817 754 851 742 833 b 663 722 708 785 683 750 b 596 817 642 750 617 785 b 558 869 583 833 571 851 z m 218 385 b 261 428 242 385 261 404 l 261 796 l 357 796 b 400 839 381 796 400 815 b 357 881 400 863 381 881 l 79 881 b 38 839 56 881 38 863 b 79 796 38 815 56 796 l 176 796 l 176 428 b 218 385 176 404 194 385 z "},"©":{"ha":997,"x_min":0,"x_max":0,"o":"m 482 606 b 558 574 511 615 543 600 b 617 558 571 553 596 546 b 632 615 638 569 644 594 b 460 688 597 675 526 706 b 346 539 393 669 346 610 l 346 344 b 460 196 346 274 393 214 b 632 268 526 178 597 207 b 617 325 644 289 638 314 b 558 310 596 338 571 331 b 482 278 543 283 511 268 b 431 344 450 288 431 313 l 431 539 b 482 606 431 571 450 596 z m 944 442 b 814 757 944 563 899 672 b 499 886 731 840 619 886 b 185 757 381 886 268 840 b 54 442 100 672 54 563 b 185 126 54 321 100 211 b 499 -4 268 43 381 -4 b 814 126 619 -4 731 43 b 944 442 899 211 944 321 z m 499 81 b 244 186 403 81 313 118 b 139 442 176 254 139 346 b 244 696 139 538 176 628 b 499 801 313 764 403 801 b 754 696 597 801 686 764 b 860 442 822 628 860 538 b 754 186 860 346 822 254 b 499 81 686 118 597 81 z "},"®":{"ha":997,"x_min":0,"x_max":0,"o":"m 401 190 b 444 233 425 190 444 210 l 444 379 l 492 379 l 588 213 b 646 196 599 192 625 185 b 661 254 667 208 672 233 l 581 396 b 667 533 632 422 667 472 b 513 686 667 618 596 686 l 401 686 b 360 644 379 686 360 668 l 360 233 b 401 190 360 210 379 190 z m 582 533 b 513 464 582 496 551 464 l 444 464 l 444 601 l 513 601 b 582 533 551 601 582 571 z m 54 442 b 185 126 54 321 100 211 b 499 -4 268 43 381 -4 b 814 126 619 -4 731 43 b 944 442 899 211 944 321 b 814 757 944 563 899 672 b 499 886 731 840 619 886 b 185 757 381 886 268 840 b 54 442 100 672 54 563 z m 499 801 b 754 696 597 801 686 764 b 860 442 822 628 860 538 b 754 186 860 346 822 254 b 499 81 686 118 597 81 b 244 186 403 81 313 118 b 139 442 176 254 139 346 b 244 696 139 538 176 628 b 499 801 313 764 403 801 z "},"?":{"ha":496,"x_min":0,"x_max":0,"o":"m 303 775 b 350 686 331 754 346 721 b 315 592 353 649 342 618 l 244 521 b 183 372 206 481 183 428 l 183 261 b 228 217 183 235 204 217 b 272 261 254 217 272 235 l 272 372 b 308 458 272 406 285 435 l 378 529 b 439 693 421 572 443 632 b 356 846 435 753 404 808 b 186 885 307 883 246 897 b 46 783 126 872 78 838 b 61 722 33 763 40 735 b 122 739 83 710 110 718 b 204 797 140 771 168 790 b 303 775 240 804 274 797 z m 286 53 b 228 111 286 85 260 111 b 169 53 196 111 169 85 b 228 -6 169 21 196 -6 b 286 53 260 -6 286 21 z "},"!":{"ha":278,"x_min":0,"x_max":0,"o":"m 139 -6 b 197 53 171 -6 197 21 b 139 111 197 85 171 111 b 81 53 107 111 81 85 b 139 -6 81 21 107 -6 z m 94 817 l 94 261 b 139 217 94 235 115 217 b 183 261 165 217 183 235 l 183 817 b 139 861 183 843 165 861 b 94 817 115 861 94 843 z "},"¿":{"ha":496,"x_min":0,"x_max":0,"o":"m 208 581 b 267 522 208 549 235 522 b 325 581 299 522 325 549 b 267 639 325 613 299 639 b 208 581 235 639 208 613 z m 139 -212 b 308 -251 188 -250 249 -264 b 450 -150 368 -240 418 -204 b 433 -89 463 -129 456 -101 b 374 -106 413 -78 385 -85 b 292 -164 356 -137 325 -157 b 193 -142 256 -171 222 -164 b 146 -53 164 -119 147 -90 b 181 42 143 -15 154 15 l 250 113 b 311 261 290 153 311 206 l 311 372 b 267 417 311 399 293 417 b 222 372 243 417 222 399 l 222 261 b 188 175 222 229 211 200 l 117 104 b 57 -60 74 61 53 1 b 139 -212 61 -119 90 -175 z "},"¡":{"ha":278,"x_min":0,"x_max":0,"o":"m 139 639 b 81 581 107 639 81 613 b 139 522 81 549 107 522 b 197 581 171 522 197 549 b 139 639 197 613 171 639 z m 139 417 b 94 372 115 417 94 399 l 94 -183 b 139 -228 94 -210 115 -228 b 183 -183 165 -228 183 -210 l 183 372 b 139 417 183 399 165 417 z "},"•":{"ha":356,"x_min":0,"x_max":0,"o":"m 178 529 b 42 392 103 529 42 465 b 178 254 42 314 101 254 b 315 392 256 254 315 314 b 178 529 315 465 256 529 z m 178 335 b 121 392 146 335 121 360 b 178 449 121 424 146 449 b 236 392 210 449 236 424 b 178 335 236 360 210 335 z "},"„":{"ha":517,"x_min":0,"x_max":0,"o":"m 128 -106 b 197 0 171 -87 197 -46 l 197 67 b 156 108 197 90 179 108 l 111 108 b 68 67 88 108 68 90 b 111 24 68 43 88 24 l 113 24 l 113 0 b 94 -28 113 -14 107 -24 b 72 -83 74 -37 63 -61 b 128 -106 82 -104 106 -115 z m 344 -28 b 322 -83 324 -37 313 -61 b 378 -106 332 -104 356 -115 b 447 0 421 -87 447 -46 l 447 67 b 406 108 447 90 429 108 l 361 108 b 318 67 338 108 318 90 b 361 24 318 43 338 24 l 363 24 l 363 0 b 344 -28 363 -14 357 -24 z "},"“":{"ha":515,"x_min":0,"x_max":0,"o":"m 421 806 b 443 861 442 815 453 839 b 388 883 433 882 410 893 b 318 778 344 865 318 824 l 318 711 b 360 668 318 688 336 668 l 404 668 b 447 711 428 668 447 688 b 404 753 447 735 428 753 l 403 753 l 403 778 b 421 806 403 790 408 799 z m 171 806 b 193 861 192 815 203 839 b 138 883 183 882 160 893 b 68 778 94 865 68 824 l 68 711 b 110 668 68 688 86 668 l 154 668 b 197 711 178 668 197 688 b 154 753 197 735 178 753 l 153 753 l 153 778 b 171 806 153 790 158 799 z "},"”":{"ha":517,"x_min":0,"x_max":0,"o":"m 94 744 b 72 689 74 735 63 711 b 128 667 82 668 106 657 b 199 772 171 685 199 726 l 199 839 b 156 881 199 863 179 881 l 111 881 b 69 839 88 881 69 863 b 111 796 69 815 88 796 l 114 796 l 114 772 b 94 744 114 758 107 749 z m 319 839 b 361 796 319 815 338 796 l 364 796 l 364 772 b 344 744 364 758 357 749 b 322 689 324 735 313 711 b 378 667 332 668 356 657 b 449 772 421 685 449 726 l 449 839 b 406 881 449 863 429 881 l 361 881 b 319 839 338 881 319 863 z "},"\"":{"ha":489,"x_min":0,"x_max":0,"o":"m 356 889 b 311 844 329 889 311 871 l 311 706 b 356 661 311 679 329 661 b 400 706 382 661 400 679 l 400 844 b 356 889 400 871 382 889 z m 89 844 l 89 706 b 133 661 89 679 107 661 b 178 706 160 661 178 679 l 178 844 b 133 889 178 871 160 889 b 89 844 107 889 89 871 z "},"‚":{"ha":265,"x_min":0,"x_max":0,"o":"m 156 108 l 111 108 b 68 67 88 108 68 90 b 111 24 68 43 88 24 l 113 24 l 113 0 b 94 -28 113 -14 107 -24 b 71 -83 72 -37 61 -61 b 126 -106 81 -104 106 -115 b 197 0 169 -87 197 -46 l 197 67 b 156 108 197 90 178 108 z "},"‘":{"ha":267,"x_min":0,"x_max":0,"o":"m 171 806 b 194 861 193 815 204 839 b 139 883 185 882 160 893 b 68 778 96 865 68 824 l 68 711 b 111 668 68 688 88 668 l 156 668 b 197 711 178 668 197 688 b 156 753 197 735 178 753 l 153 753 l 153 778 b 171 806 153 790 158 799 z "},"’":{"ha":267,"x_min":0,"x_max":0,"o":"m 94 744 b 71 689 72 735 61 711 b 126 667 81 668 106 657 b 197 772 169 685 197 726 l 197 839 b 156 881 197 863 178 881 l 111 881 b 68 839 88 881 68 863 b 111 796 68 815 88 796 l 113 796 l 113 772 b 94 744 113 758 107 749 z "},"'":{"ha":267,"x_min":0,"x_max":0,"o":"m 178 706 l 178 844 b 133 889 178 871 157 889 b 89 844 107 889 89 871 l 89 706 b 133 661 89 679 107 661 b 178 706 157 661 178 679 z "},"·":{"ha":267,"x_min":0,"x_max":0,"o":"m 75 539 b 133 481 75 507 101 481 b 192 539 165 481 192 507 b 133 597 192 571 165 597 b 75 539 101 597 75 571 z "},";":{"ha":267,"x_min":0,"x_max":0,"o":"m 156 108 l 111 108 b 69 67 88 108 69 90 b 111 24 69 43 88 24 l 114 24 l 114 0 b 94 -28 114 -14 107 -24 b 72 -83 74 -37 63 -61 b 128 -106 82 -104 106 -115 b 199 0 171 -87 199 -46 l 199 67 b 156 108 199 90 179 108 z m 133 522 b 192 581 165 522 192 549 b 133 639 192 613 165 639 b 75 581 101 639 75 613 b 133 522 75 549 101 522 z "},":":{"ha":267,"x_min":0,"x_max":0,"o":"m 192 53 b 133 111 192 85 167 111 b 75 53 101 111 75 85 b 133 -6 75 21 101 -6 b 192 53 167 -6 192 21 z m 133 639 b 75 581 101 639 75 613 b 133 522 75 549 101 522 b 192 581 167 522 192 549 b 133 639 192 613 167 639 z "},",":{"ha":267,"x_min":0,"x_max":0,"o":"m 94 -28 b 72 -83 74 -37 63 -61 b 128 -106 82 -104 106 -115 b 199 0 171 -87 199 -46 l 199 67 b 156 108 199 90 179 108 l 111 108 b 69 67 88 108 69 90 b 111 24 69 43 88 24 l 114 24 l 114 0 b 94 -28 114 -14 107 -24 z "},"…":{"ha":800,"x_min":0,"x_max":0,"o":"m 122 111 b 64 53 90 111 64 85 b 122 -6 64 21 90 -6 b 181 53 156 -6 181 21 b 122 111 181 85 156 111 z m 458 53 b 400 111 458 85 433 111 b 342 53 368 111 342 85 b 400 -6 342 21 368 -6 b 458 53 433 -6 458 21 z m 619 53 b 678 -6 619 21 646 -6 b 736 53 711 -6 736 21 b 678 111 736 85 711 111 b 619 53 646 111 619 85 z "},"»":{"ha":582,"x_min":0,"x_max":0,"o":"m 332 233 b 356 194 332 215 340 203 b 415 213 376 182 404 190 l 510 383 b 510 426 518 397 518 411 l 421 588 b 361 606 410 610 382 618 b 338 567 346 597 338 585 b 343 546 338 560 339 553 b 375 488 354 525 365 506 b 421 406 392 456 411 421 b 372 317 411 389 390 350 b 338 254 363 297 350 276 b 332 233 333 244 332 238 z m 82 233 b 106 194 82 215 90 203 b 165 213 126 182 154 190 l 260 383 b 260 426 268 397 268 411 l 171 588 b 111 606 160 610 132 618 b 88 567 96 597 88 585 b 93 546 88 560 89 553 b 125 488 104 525 115 506 b 171 406 142 456 161 421 b 122 317 161 389 140 350 b 88 254 113 297 100 276 b 82 233 83 244 82 238 z "},"«":{"ha":582,"x_min":0,"x_max":0,"o":"m 494 567 b 472 606 494 583 488 596 b 411 588 450 618 424 610 l 322 426 b 322 383 315 411 315 397 l 417 213 b 478 194 429 190 456 182 b 500 233 493 204 500 217 b 494 254 500 240 499 247 b 460 317 482 276 469 297 b 413 406 442 350 422 389 b 457 488 422 421 440 456 b 489 546 467 506 478 525 b 494 567 493 550 494 557 z m 228 194 b 250 233 243 204 250 217 b 244 254 250 240 249 247 b 210 317 232 276 219 297 b 163 406 192 350 172 389 b 207 488 172 421 190 456 b 239 546 217 506 228 525 b 244 567 243 550 244 557 b 222 606 244 583 238 596 b 161 588 200 618 174 610 l 72 426 b 72 383 65 411 65 397 l 167 213 b 228 194 179 190 206 182 z "},"›":{"ha":332,"x_min":0,"x_max":0,"o":"m 260 426 l 171 588 b 111 606 160 610 132 618 b 88 567 96 597 88 585 b 93 546 88 560 89 553 b 125 488 104 525 115 506 b 171 406 142 456 161 421 b 122 317 161 389 140 350 b 88 254 113 297 100 276 b 82 233 83 244 82 238 b 106 194 82 215 90 203 b 165 213 126 182 154 190 l 260 383 b 260 426 268 397 268 411 z "},"‹":{"ha":332,"x_min":0,"x_max":0,"o":"m 244 567 b 222 606 244 583 238 596 b 161 588 200 618 174 610 l 72 426 b 72 383 65 411 65 397 l 167 213 b 228 194 179 190 206 182 b 250 233 243 204 250 217 b 244 254 250 240 249 247 b 210 317 232 276 219 297 b 163 406 192 350 172 389 b 207 488 172 421 190 456 b 239 546 217 506 228 525 b 244 567 243 550 244 557 z "},"}":{"ha":356,"x_min":0,"x_max":0,"o":"m 133 344 l 133 39 b 67 -28 133 1 104 -28 b 22 -72 40 -28 22 -46 b 67 -117 22 -99 40 -117 b 222 39 151 -117 222 -46 l 222 344 b 289 411 222 382 251 411 b 333 456 313 411 333 429 b 289 500 333 482 313 500 b 222 567 251 500 222 529 l 222 844 b 67 1000 222 929 151 1000 b 22 956 40 1000 22 982 b 67 911 22 929 40 911 b 133 844 104 911 133 882 l 133 567 b 179 456 133 521 149 485 b 133 344 149 426 133 390 z "},"]":{"ha":356,"x_min":0,"x_max":0,"o":"m 217 994 l 78 994 b 33 950 51 994 33 976 b 78 906 33 924 51 906 l 172 906 l 172 -22 l 78 -22 b 33 -67 51 -22 33 -40 b 78 -111 33 -93 51 -111 l 217 -111 b 261 -67 240 -111 261 -93 l 261 950 b 217 994 261 976 240 994 z "},")":{"ha":374,"x_min":0,"x_max":0,"o":"m 294 456 b 247 739 294 554 279 649 b 107 997 215 831 169 917 b 44 1004 92 1018 65 1019 b 38 942 26 989 22 963 b 164 710 93 871 135 793 b 206 456 192 628 206 543 b 164 201 206 368 192 283 b 38 -31 135 118 93 40 b 44 -93 22 -51 26 -78 b 107 -86 65 -108 92 -107 b 247 172 168 -8 215 78 b 294 456 279 263 294 357 z "},"(":{"ha":372,"x_min":0,"x_max":0,"o":"m 335 928 b 326 990 350 949 347 975 b 264 983 306 1006 279 1004 b 125 725 203 904 157 819 b 78 442 93 635 78 540 b 125 158 78 343 93 249 b 264 -100 156 65 201 -21 b 326 -107 279 -121 306 -122 b 335 -44 347 -92 350 -65 b 208 188 279 26 238 104 b 167 442 181 269 167 354 b 208 696 167 529 181 614 b 335 928 238 779 279 857 z "},"[":{"ha":356,"x_min":0,"x_max":0,"o":"m 139 -111 l 278 -111 b 322 -67 304 -111 322 -93 b 278 -22 322 -40 304 -22 l 183 -22 l 183 906 l 278 906 b 322 950 304 906 322 924 b 278 994 322 976 304 994 l 139 994 b 94 950 113 994 94 976 l 94 -67 b 139 -111 94 -93 113 -111 z "},"{":{"ha":356,"x_min":0,"x_max":0,"o":"m 222 567 l 222 844 b 289 911 222 882 251 911 b 333 956 315 911 333 929 b 289 1000 333 982 315 1000 b 133 844 204 1000 133 929 l 133 567 b 67 500 133 529 104 500 b 22 456 40 500 22 482 b 67 411 22 429 40 411 b 133 344 104 411 133 382 l 133 39 b 289 -117 133 -46 204 -117 b 333 -72 315 -117 333 -99 b 289 -28 333 -46 315 -28 b 222 39 251 -28 222 1 l 222 344 b 175 456 222 388 204 428 b 222 567 204 483 222 524 z "},"¸":{"ha":694,"x_min":0,"x_max":0,"o":"m 306 39 l 306 -46 b 272 -104 306 -72 294 -92 b 256 -165 251 -117 244 -143 b 317 -181 268 -186 296 -193 b 394 -46 365 -153 394 -101 l 394 39 b 350 83 394 65 376 83 b 306 39 324 83 306 65 z "},"˜":{"ha":694,"x_min":0,"x_max":0,"o":"m 269 867 b 185 811 236 860 206 840 b 197 749 172 790 176 764 b 260 761 218 736 244 740 b 285 779 264 769 272 775 b 315 771 297 781 307 778 l 326 763 b 425 739 356 742 388 733 b 510 794 463 746 490 765 b 497 856 525 815 518 843 b 435 843 476 871 450 864 b 410 826 429 835 421 829 b 379 835 399 825 389 828 l 368 843 b 269 867 339 864 307 872 z "},"¨":{"ha":694,"x_min":0,"x_max":0,"o":"m 400 803 b 458 744 400 771 426 744 b 517 803 490 744 517 771 b 458 861 517 835 490 861 b 400 803 426 861 400 835 z m 178 803 b 236 744 178 771 204 744 b 294 803 268 744 294 771 b 236 861 294 835 268 861 b 178 803 204 861 178 835 z "},"ˆ":{"ha":694,"x_min":0,"x_max":0,"o":"m 250 713 b 286 740 263 722 274 731 b 347 788 307 756 331 775 b 408 740 364 775 388 756 b 446 713 421 731 433 722 b 508 719 467 697 493 699 b 500 782 524 740 521 767 l 375 879 b 347 889 367 886 357 889 b 321 879 338 889 328 886 l 196 782 b 188 719 175 767 172 740 b 250 713 203 699 229 697 z "},"`":{"ha":694,"x_min":0,"x_max":0,"o":"m 447 781 l 308 906 b 244 901 290 922 261 919 b 249 839 229 883 231 856 l 388 714 b 450 718 406 697 433 697 b 447 781 467 736 465 764 z "},"´":{"ha":694,"x_min":0,"x_max":0,"o":"m 388 906 l 249 781 b 246 718 231 764 229 736 b 308 714 261 697 290 697 l 447 839 b 450 901 465 856 467 883 b 388 906 433 919 406 922 z "},"<":{"ha":578,"x_min":0,"x_max":0,"o":"m 478 93 b 489 122 485 103 489 113 b 472 157 489 135 483 147 b 350 258 429 193 388 226 b 181 400 285 313 211 374 b 350 542 211 426 285 488 b 472 643 388 574 429 607 b 489 678 483 653 489 664 b 478 706 489 688 485 696 b 415 713 463 726 436 728 l 82 435 b 67 400 72 425 67 413 b 82 365 67 385 72 374 l 415 88 b 478 93 436 72 463 75 z "},">":{"ha":578,"x_min":0,"x_max":0,"o":"m 89 122 b 99 93 89 110 92 100 b 161 88 115 75 143 72 l 494 365 b 511 400 506 374 511 385 b 494 435 511 413 506 425 l 161 713 b 99 706 143 728 115 726 b 89 678 92 699 89 689 b 104 643 89 665 94 653 b 228 542 149 607 190 574 b 397 400 294 486 364 426 b 228 258 364 374 294 314 b 104 157 190 226 149 193 b 89 122 94 147 89 135 z "},"=":{"ha":578,"x_min":0,"x_max":0,"o":"m 456 333 l 122 333 b 78 289 99 333 78 315 b 122 244 78 263 99 244 l 456 244 b 500 289 482 244 500 263 b 456 333 500 315 482 333 z m 456 556 l 122 556 b 78 511 99 556 78 538 b 122 467 78 485 99 467 l 456 467 b 500 511 482 467 500 485 b 456 556 500 538 482 556 z "},"×":{"ha":578,"x_min":0,"x_max":0,"o":"m 460 571 b 428 583 450 579 440 583 b 396 571 415 583 406 579 l 289 463 l 182 571 b 150 583 172 579 163 583 b 118 571 138 583 128 579 b 106 539 110 561 106 551 b 118 507 106 526 110 517 l 226 400 l 118 293 b 106 261 110 283 106 274 b 118 229 106 249 110 239 b 150 217 128 221 138 217 b 182 229 163 217 172 221 l 289 338 l 396 229 b 428 217 406 221 415 217 b 460 229 440 217 450 221 b 472 261 468 239 472 249 b 460 293 472 274 468 283 l 351 400 l 460 507 b 472 539 468 517 472 526 b 460 571 472 551 468 561 z "},"÷":{"ha":578,"x_min":0,"x_max":0,"o":"m 231 219 b 289 161 231 188 256 161 b 347 219 321 161 347 188 b 289 278 347 251 321 278 b 231 219 256 278 231 251 z m 289 522 b 347 581 321 522 347 549 b 289 639 347 613 321 639 b 231 581 256 639 231 613 b 289 522 231 549 256 522 z m 500 400 b 456 444 500 426 479 444 l 122 444 b 78 400 96 444 78 426 b 122 356 78 374 96 356 l 456 356 b 500 400 479 356 500 374 z "},"±":{"ha":578,"x_min":0,"x_max":0,"o":"m 456 89 l 122 89 b 78 44 99 89 78 71 b 122 0 78 18 99 0 l 456 0 b 500 44 482 0 500 18 b 456 89 500 71 482 89 z m 456 444 l 333 444 l 333 567 b 289 611 333 593 315 611 b 244 567 265 611 244 593 l 244 444 l 122 444 b 78 400 99 444 78 426 b 122 356 78 374 99 356 l 244 356 l 244 233 b 289 189 244 207 265 189 b 333 233 315 189 333 207 l 333 356 l 456 356 b 500 400 482 356 500 374 b 456 444 500 426 482 444 z "},"¬":{"ha":578,"x_min":0,"x_max":0,"o":"m 456 444 l 122 444 b 78 400 99 444 78 426 b 122 356 78 374 99 356 l 411 356 l 411 233 b 456 189 411 207 432 189 b 500 233 482 189 500 207 l 500 400 b 456 444 500 426 482 444 z "},"^":{"ha":694,"x_min":0,"x_max":0,"o":"m 99 561 b 163 565 119 544 146 547 b 236 650 188 594 213 624 b 347 776 276 696 321 749 b 458 650 371 749 418 696 b 532 565 482 624 507 594 b 596 561 549 547 575 544 b 600 624 614 578 615 606 l 381 874 b 347 889 372 883 361 889 b 314 874 333 889 322 883 l 94 624 b 99 561 79 606 81 578 z "},"+":{"ha":578,"x_min":0,"x_max":0,"o":"m 456 444 l 333 444 l 333 567 b 289 611 333 593 313 611 b 244 567 263 611 244 593 l 244 444 l 122 444 b 78 400 96 444 78 426 b 122 356 78 374 96 356 l 244 356 l 244 233 b 289 189 244 207 263 189 b 333 233 313 189 333 207 l 333 356 l 456 356 b 500 400 479 356 500 374 b 456 444 500 426 479 444 z "},"°":{"ha":435,"x_min":0,"x_max":0,"o":"m 383 719 b 218 885 383 810 308 885 b 53 719 126 885 53 810 b 218 554 53 628 126 554 b 383 719 308 554 383 628 z m 133 719 b 218 804 133 768 169 804 b 303 719 267 804 303 768 b 218 635 303 671 267 635 b 133 719 169 635 133 671 z "},"¦":{"ha":289,"x_min":0,"x_max":0,"o":"m 144 361 b 100 317 118 361 100 343 l 100 -239 b 144 -283 100 -265 118 -283 b 189 -239 171 -283 189 -265 l 189 317 b 144 361 189 343 171 361 z m 144 1194 b 100 1150 118 1194 100 1176 l 100 594 b 144 550 100 568 118 550 b 189 594 171 550 189 568 l 189 1150 b 144 1194 189 1176 171 1194 z "},"|":{"ha":289,"x_min":0,"x_max":0,"o":"m 151 1194 b 107 1150 125 1194 107 1176 l 107 -239 b 151 -283 107 -265 125 -283 b 196 -239 178 -283 196 -265 l 196 1150 b 151 1194 196 1176 178 1194 z "},"\\":{"ha":578,"x_min":0,"x_max":0,"o":"m 497 -1 l 164 915 b 107 942 154 938 131 951 b 81 885 85 932 71 908 l 414 -32 b 471 -58 424 -56 449 -68 b 497 -1 494 -49 507 -25 z "},"/":{"ha":578,"x_min":0,"x_max":0,"o":"m 471 942 b 414 915 449 951 424 938 l 81 -1 b 107 -58 71 -25 85 -49 b 164 -32 131 -68 154 -56 l 497 885 b 471 942 507 908 494 932 z "},"¯":{"ha":694,"x_min":0,"x_max":0,"o":"m 694 1083 l 0 1083 b -44 1039 -26 1083 -44 1065 b 0 994 -44 1013 -26 994 l 694 994 b 739 1039 718 994 739 1013 b 694 1083 739 1065 718 1083 z "},"_":{"ha":694,"x_min":0,"x_max":0,"o":"m 694 -111 l 0 -111 b -44 -156 -26 -111 -44 -129 b 0 -200 -44 -182 -26 -200 l 694 -200 b 739 -156 718 -200 739 -182 b 694 -111 739 -129 718 -111 z "},"—":{"ha":1389,"x_min":0,"x_max":0,"o":"m 0 356 l 1389 356 b 1433 400 1415 356 1433 374 b 1389 444 1433 426 1415 444 l 0 444 b -44 400 -24 444 -44 426 b 0 356 -44 374 -24 356 z "},"–":{"ha":694,"x_min":0,"x_max":0,"o":"m 694 444 l 0 444 b -44 400 -24 444 -44 426 b 0 356 -44 374 -24 356 l 694 356 b 739 400 721 356 739 374 b 694 444 739 426 721 444 z "},"$":{"ha":578,"x_min":0,"x_max":0,"o":"m 407 410 l 232 553 b 193 635 206 574 193 600 b 231 718 192 668 204 696 b 300 744 251 736 274 744 l 301 744 l 310 744 b 319 743 314 744 317 744 b 394 690 354 738 379 719 b 456 674 407 669 435 661 b 472 735 476 686 483 714 b 346 828 444 783 400 815 l 346 900 b 301 944 346 926 325 944 b 257 900 275 944 257 926 l 257 828 b 174 786 225 821 197 807 b 104 633 128 749 103 693 b 176 483 104 574 131 521 l 350 340 b 393 254 376 319 392 288 b 353 167 393 218 379 189 b 279 139 332 149 307 139 l 278 139 l 268 139 b 260 140 265 139 263 139 b 181 196 225 146 199 164 b 119 213 168 217 140 224 b 103 151 99 200 90 172 b 235 56 132 101 179 67 l 235 -17 b 279 -61 235 -43 253 -61 b 324 -17 303 -61 324 -43 l 324 54 b 410 99 356 64 383 76 b 482 254 456 138 482 194 b 407 410 481 315 456 372 z "},"¢":{"ha":578,"x_min":0,"x_max":0,"o":"m 272 543 b 307 550 285 547 296 550 l 308 550 l 310 550 b 375 522 335 550 357 540 b 406 510 383 514 393 510 b 438 522 418 510 428 514 b 450 554 446 532 450 542 b 438 585 450 567 446 576 b 353 633 414 611 385 624 l 353 706 b 308 750 353 732 332 750 b 264 706 282 750 264 732 l 264 633 b 238 625 254 629 247 629 b 125 456 169 596 125 532 l 125 178 b 238 8 125 101 169 38 b 264 0 246 4 254 1 l 264 -72 b 308 -117 264 -99 282 -117 b 353 -72 332 -117 353 -99 l 353 0 b 438 49 385 10 414 22 b 450 79 446 57 450 67 b 438 111 450 92 446 101 b 406 124 428 119 418 124 b 375 111 393 124 383 119 b 310 83 357 93 335 83 l 308 83 l 307 83 b 272 90 296 83 285 86 b 214 178 235 106 214 139 l 214 456 b 272 543 214 494 235 528 z "},"£":{"ha":578,"x_min":0,"x_max":0,"o":"m 483 89 l 218 89 b 250 201 239 124 250 161 l 250 411 l 372 411 b 417 456 399 411 417 429 b 372 500 417 482 399 500 l 250 500 l 250 706 b 321 797 250 749 278 786 b 426 753 361 808 406 790 b 488 736 439 732 467 724 b 504 797 508 749 515 776 b 297 882 461 869 379 904 b 161 706 218 861 161 789 l 161 500 l 94 500 b 50 456 71 500 50 482 b 94 411 50 429 71 411 l 161 411 l 161 201 b 81 86 161 150 129 104 b 51 38 60 79 47 58 b 94 0 56 15 74 0 l 483 0 b 528 44 510 0 528 18 b 483 89 528 71 510 89 z "},"¥":{"ha":578,"x_min":0,"x_max":0,"o":"m 244 189 l 244 39 b 289 -6 244 13 263 -6 b 333 39 315 -6 333 13 l 333 189 l 461 189 b 506 233 488 189 506 207 b 461 278 506 260 488 278 l 333 278 l 333 411 l 461 411 b 506 456 488 411 506 429 b 461 500 506 482 488 500 l 361 500 l 524 825 b 503 885 533 846 525 874 b 443 864 481 894 454 886 l 289 556 l 135 864 b 75 885 124 886 96 894 b 54 825 53 874 43 846 l 217 500 l 128 500 b 83 456 101 500 83 482 b 128 411 83 429 101 411 l 244 411 l 244 278 l 128 278 b 83 233 101 278 83 260 b 128 189 83 207 101 189 z "},"€":{"ha":578,"x_min":0,"x_max":0,"o":"m 315 796 b 453 739 369 811 425 788 l 467 715 b 528 699 479 693 506 686 b 543 760 549 711 556 738 l 529 783 b 292 882 481 867 386 908 b 136 678 199 856 136 774 l 136 597 l 69 597 b 25 553 43 597 25 579 b 69 508 25 526 43 508 l 136 508 l 136 375 l 69 375 b 25 331 43 375 25 357 b 69 286 25 304 43 286 l 136 286 l 136 206 b 292 1 136 110 199 28 b 529 100 386 -25 481 17 l 543 124 b 528 185 556 146 549 172 b 467 168 506 197 479 190 l 453 144 b 315 88 425 96 369 72 b 225 206 261 103 225 150 l 225 286 l 347 286 b 392 331 371 286 392 304 b 347 375 392 357 371 375 l 225 375 l 225 508 l 403 508 b 447 553 426 508 447 526 b 403 597 447 579 426 597 l 225 597 l 225 678 b 315 796 225 733 261 781 z "},"&":{"ha":685,"x_min":0,"x_max":0,"o":"m 485 139 l 572 25 b 635 18 588 4 614 3 b 643 81 656 33 658 60 l 533 221 l 594 321 b 579 382 607 343 600 369 b 518 367 558 394 531 389 l 475 296 l 440 342 l 335 479 l 424 593 b 444 783 467 649 474 721 b 285 889 415 846 356 885 b 118 794 214 893 151 856 b 125 606 85 735 88 663 l 125 604 l 126 604 l 126 603 l 128 601 l 222 479 l 111 335 b 69 172 74 286 60 232 b 160 31 79 113 110 65 b 324 -1 208 -1 267 -14 b 460 97 381 14 428 46 z m 279 551 l 199 654 b 196 751 181 683 179 719 b 282 800 214 783 244 801 b 364 746 317 799 349 778 b 353 647 379 714 375 676 z m 426 214 l 383 143 b 304 86 364 113 338 93 b 210 104 269 79 238 85 b 158 186 182 125 163 153 b 182 281 153 221 161 251 l 279 406 l 369 288 z "},"*":{"ha":578,"x_min":0,"x_max":0,"o":"m 332 563 l 449 496 b 506 511 469 483 494 490 b 490 568 518 532 511 557 l 374 636 l 490 704 b 506 761 511 715 518 740 b 449 776 494 782 469 789 l 332 710 l 332 844 b 289 886 332 868 313 886 b 247 844 265 886 247 868 l 247 710 l 129 776 b 72 761 108 789 83 782 b 88 704 60 740 67 715 l 204 636 l 88 568 b 72 511 67 557 60 532 b 129 496 83 490 108 483 l 247 563 l 247 428 b 289 385 247 404 265 385 b 332 428 313 385 332 404 z "},"‰":{"ha":1240,"x_min":0,"x_max":0,"o":"m 1024 329 b 858 164 932 329 858 254 b 1024 -1 858 72 932 -1 b 1188 164 1113 -1 1188 72 b 1024 329 1188 254 1113 329 z m 1024 79 b 938 164 975 79 938 115 b 1024 249 938 213 975 249 b 1108 164 1069 249 1108 213 b 1024 79 1108 115 1069 79 z m 607 329 b 442 164 515 329 442 254 b 607 -1 442 72 515 -1 b 771 164 696 -1 771 72 b 607 329 771 254 696 329 z m 607 79 b 521 164 558 79 521 115 b 607 249 521 213 558 249 b 692 164 653 249 692 213 b 607 79 692 115 653 79 z m 382 719 b 218 885 382 810 307 885 b 53 719 126 885 53 810 b 218 554 53 628 126 554 b 382 719 307 554 382 628 z m 132 719 b 218 804 132 768 169 804 b 303 719 264 804 303 768 b 218 635 303 671 264 635 b 132 719 169 635 132 671 z m 626 885 b 567 864 604 894 578 886 l 178 58 b 199 -1 167 36 176 10 b 257 19 221 -12 247 -3 l 646 825 b 626 885 657 847 647 874 z "},"%":{"ha":824,"x_min":0,"x_max":0,"o":"m 607 329 b 442 164 515 329 442 254 b 607 -1 442 72 515 -1 b 772 164 697 -1 772 72 b 607 329 772 254 697 329 z m 607 79 b 522 164 558 79 522 115 b 607 249 522 213 558 249 b 692 164 656 249 692 213 b 607 79 692 115 656 79 z m 383 719 b 218 885 383 810 308 885 b 53 719 126 885 53 810 b 218 554 53 628 126 554 b 383 719 308 554 383 628 z m 133 719 b 218 804 133 768 169 804 b 303 719 267 804 303 768 b 218 635 303 671 267 635 b 133 719 169 635 133 671 z m 626 885 b 567 864 604 894 578 886 l 178 58 b 199 -1 167 36 176 10 b 258 19 221 -12 247 -3 l 647 825 b 626 885 657 847 649 874 z "},"#":{"ha":636,"x_min":0,"x_max":0,"o":"m 472 524 l 568 524 b 611 567 592 524 611 543 b 568 608 611 590 592 608 l 472 608 l 472 844 b 429 886 472 868 453 886 b 388 844 406 886 388 868 l 388 608 l 250 608 l 250 844 b 207 886 250 868 231 886 b 165 844 183 886 165 868 l 165 608 l 68 608 b 26 567 44 608 26 590 b 68 524 26 543 44 524 l 165 524 l 165 386 l 68 386 b 26 344 44 386 26 368 b 68 301 26 321 44 301 l 165 301 l 165 39 b 207 -4 165 15 183 -4 b 250 39 231 -4 250 15 l 250 301 l 388 301 l 388 39 b 429 -4 388 15 406 -4 b 472 39 453 -4 472 15 l 472 301 l 568 301 b 611 344 592 301 611 321 b 568 386 611 368 592 386 l 472 386 z m 388 524 l 388 386 l 250 386 l 250 524 z "},"¶":{"ha":667,"x_min":0,"x_max":0,"o":"m 603 881 l 256 881 b 47 672 140 881 47 788 b 256 463 47 557 140 463 l 269 463 l 269 -72 b 311 -115 269 -96 288 -115 b 354 -72 335 -115 354 -96 l 354 796 l 464 796 l 464 -72 b 506 -115 464 -96 482 -115 b 549 -72 529 -115 549 -96 l 549 796 l 603 796 b 646 839 626 796 646 815 b 603 881 646 863 626 881 z m 269 796 l 269 547 l 256 547 b 132 672 188 547 132 604 b 256 796 132 740 188 796 z "},"ƒ":{"ha":694,"x_min":0,"x_max":0,"o":"m 485 907 b 360 761 418 886 371 832 l 340 633 l 239 633 b 194 589 215 633 194 615 b 239 544 194 563 215 544 l 326 544 l 246 25 b 182 -51 240 -12 215 -40 b 86 -28 147 -62 113 -54 b 54 -15 76 -19 67 -15 b 22 -28 42 -15 32 -19 b 10 -60 14 -37 10 -47 b 22 -90 10 -72 14 -82 b 210 -136 72 -140 143 -157 b 333 11 275 -114 322 -60 l 417 544 l 517 544 b 561 589 543 544 561 563 b 517 633 561 615 543 633 l 431 633 l 449 747 b 513 824 453 785 478 813 b 608 800 546 835 582 826 b 639 788 617 792 626 788 b 671 800 651 788 663 792 b 685 832 681 810 685 819 b 671 863 685 844 681 854 b 485 907 622 913 550 929 z "},"†":{"ha":583,"x_min":0,"x_max":0,"o":"m 458 633 l 336 633 l 336 844 b 292 889 336 871 318 889 b 247 844 268 889 247 871 l 247 633 l 125 633 b 81 589 101 633 81 615 b 125 544 81 563 101 544 l 247 544 l 247 -72 b 292 -117 247 -99 268 -117 b 336 -72 318 -117 336 -99 l 336 544 l 458 544 b 503 589 485 544 503 563 b 458 633 503 615 485 633 z "},"‡":{"ha":583,"x_min":0,"x_max":0,"o":"m 336 544 l 458 544 b 503 589 485 544 503 563 b 458 633 503 615 485 633 l 336 633 l 336 844 b 292 889 336 871 318 889 b 247 844 268 889 247 871 l 247 633 l 125 633 b 81 589 101 633 81 615 b 125 544 81 563 101 544 l 247 544 l 247 228 l 125 228 b 81 183 101 228 81 210 b 125 139 81 157 101 139 l 247 139 l 247 -72 b 292 -117 247 -99 268 -117 b 336 -72 318 -117 336 -99 l 336 139 l 458 139 b 503 183 485 139 503 157 b 458 228 503 210 485 228 l 336 228 z "},"Š":{"ha":538,"x_min":0,"x_max":0,"o":"m 414 364 l 192 593 b 157 688 165 619 154 650 b 206 775 160 724 176 753 b 303 797 235 797 268 804 b 385 739 338 790 368 771 b 446 722 397 718 425 710 b 463 783 467 735 474 763 b 321 885 431 838 381 872 b 151 846 261 897 200 883 b 68 693 103 808 74 754 b 128 531 64 633 85 574 l 350 303 b 386 203 376 276 390 240 b 335 110 382 165 364 132 b 231 86 304 86 269 79 b 144 147 193 93 165 114 b 85 164 133 169 106 176 b 68 103 63 151 56 125 b 214 -1 100 49 153 11 b 389 39 275 -14 339 1 b 474 196 439 76 469 133 b 414 364 479 258 457 319 z m 378 1156 l 340 1126 b 279 1079 319 1110 294 1092 b 217 1126 263 1092 238 1110 b 181 1156 204 1136 193 1146 b 121 1149 160 1171 136 1167 b 128 1089 106 1128 110 1104 l 253 992 b 279 982 260 985 269 982 b 306 992 289 982 299 985 l 431 1089 b 438 1149 449 1104 453 1128 b 378 1156 422 1167 399 1171 z "},"Ž":{"ha":533,"x_min":0,"x_max":0,"o":"m 478 839 b 471 864 478 846 475 854 b 433 883 463 876 450 883 l 100 883 b 56 839 74 883 56 865 b 100 794 56 813 74 794 l 367 794 b 196 388 344 742 267 557 b 58 61 153 288 107 179 b 56 44 57 54 56 49 b 63 19 56 38 58 29 b 100 0 71 7 83 0 l 433 0 b 478 44 460 0 478 18 b 433 89 478 71 460 89 l 167 89 b 336 494 189 140 265 322 b 474 822 378 594 424 704 b 478 839 476 828 478 833 z m 365 1156 l 328 1126 b 267 1079 307 1110 282 1092 b 204 1126 250 1092 225 1110 b 168 1156 192 1136 181 1146 b 108 1149 147 1171 124 1167 b 115 1089 93 1128 97 1104 l 240 992 b 267 982 247 985 257 982 b 293 992 276 982 286 985 l 418 1089 b 425 1149 436 1104 440 1128 b 365 1156 410 1167 386 1171 z "},"š":{"ha":457,"x_min":0,"x_max":0,"o":"m 315 311 l 186 401 b 150 464 164 417 151 438 b 176 531 149 490 157 513 b 246 551 196 549 219 556 b 306 511 272 547 293 533 b 363 496 317 490 342 485 b 378 553 383 507 389 532 b 258 635 351 597 308 625 b 121 592 208 642 158 626 b 67 458 83 558 63 510 b 138 333 71 408 94 363 l 267 242 b 304 175 290 225 303 203 b 276 104 307 147 297 124 b 203 82 254 85 229 78 b 139 125 175 86 154 101 b 82 140 128 146 103 151 b 67 83 61 129 56 104 b 190 -1 93 38 136 8 b 332 43 242 -8 293 6 b 388 181 371 78 392 126 b 315 311 383 235 358 279 z m 333 875 l 296 846 b 233 797 275 829 249 810 b 171 846 217 810 192 829 b 132 875 158 856 146 865 b 76 868 115 890 92 886 b 83 813 64 851 67 828 l 208 715 b 257 715 225 703 242 703 l 382 813 b 389 868 400 828 404 851 b 333 875 376 886 351 890 z "},"ž":{"ha":478,"x_min":0,"x_max":0,"o":"m 419 589 b 414 611 419 594 418 601 b 378 631 406 624 393 631 l 100 631 b 58 589 76 631 58 613 b 100 547 58 565 76 547 l 310 547 b 168 269 283 499 224 378 b 63 64 136 206 100 138 b 58 44 60 57 58 50 b 64 22 58 36 60 29 b 100 3 72 10 85 3 l 378 3 b 419 44 401 3 419 21 b 378 86 419 68 401 86 l 168 86 b 310 364 190 133 254 256 b 415 569 342 428 378 496 b 419 589 418 576 419 582 z m 82 868 b 89 813 69 851 72 828 l 214 715 b 263 715 231 703 247 703 l 388 813 b 394 868 406 828 410 851 b 339 875 382 886 357 890 l 301 846 b 239 797 281 829 254 810 b 176 846 222 810 197 829 b 138 875 164 856 151 865 b 82 868 121 890 97 886 z "},"Ł":{"ha":521,"x_min":0,"x_max":0,"o":"m 438 89 l 204 89 l 204 429 l 326 500 b 343 561 347 513 354 540 b 282 578 331 582 303 589 l 204 532 l 204 844 b 160 889 204 871 186 889 b 115 844 133 889 115 871 l 115 481 l 29 432 b 13 371 8 419 0 392 b 74 354 25 350 53 342 l 115 379 l 115 44 b 160 0 115 18 133 0 l 438 0 b 482 44 464 0 482 18 b 438 89 482 71 464 89 z "},"ł":{"ha":331,"x_min":0,"x_max":0,"o":"m 253 554 l 207 528 l 207 872 b 165 914 207 896 189 914 b 124 872 142 914 124 896 l 124 479 l 36 429 b 21 372 15 418 10 393 b 78 357 32 351 57 346 l 124 383 l 124 135 b 200 3 124 81 151 31 b 257 18 221 -8 246 -3 b 242 75 268 39 263 64 b 207 135 221 88 207 108 l 207 432 l 294 482 b 310 539 315 493 321 518 b 253 554 299 560 274 565 z "},"µ":{"ha":556,"x_min":0,"x_max":0,"o":"m 417 636 b 375 594 393 636 375 618 l 375 178 b 278 81 375 124 332 81 b 181 178 224 81 181 124 l 181 594 b 139 636 181 618 163 636 b 97 594 115 636 97 618 l 97 -239 b 139 -281 97 -262 115 -281 b 181 -239 163 -281 181 -262 l 181 25 b 278 -3 210 7 242 -3 b 376 26 314 -3 347 7 b 417 -3 382 10 396 -3 b 458 39 440 -3 458 15 l 458 594 b 417 636 458 618 440 636 z "},"¾":{"ha":872,"x_min":0,"x_max":0,"o":"m 310 525 l 310 553 b 269 650 310 590 296 624 b 290 679 278 658 285 668 b 310 747 303 700 310 724 b 290 815 310 771 303 794 b 172 885 267 858 221 885 b 53 815 124 885 79 858 b 68 761 42 797 47 772 b 122 776 89 750 111 756 b 172 804 135 794 151 804 b 222 776 193 804 210 794 b 222 718 232 757 232 738 b 172 690 210 700 193 690 b 132 650 150 690 132 672 b 172 610 132 628 150 610 b 229 553 204 610 229 585 l 229 525 b 188 469 229 499 214 476 b 122 496 161 463 138 474 b 68 511 111 517 89 522 b 53 457 47 500 42 475 b 208 393 85 403 147 376 b 310 525 268 408 310 463 z m 786 190 l 754 190 l 754 233 b 714 274 754 256 736 274 b 674 233 692 274 674 256 l 674 190 l 593 190 b 656 343 608 228 633 289 b 696 440 668 374 682 406 b 699 456 697 446 699 450 b 674 493 699 474 690 486 b 621 471 653 503 631 492 l 497 165 b 501 128 492 153 493 140 b 535 110 508 115 519 110 l 674 110 l 674 39 b 714 -1 674 17 692 -1 b 754 39 736 -1 754 17 l 754 110 l 786 110 b 826 150 808 110 826 128 b 786 190 826 172 808 190 z m 650 885 b 590 864 628 894 601 886 l 201 58 b 222 -1 190 36 200 10 b 282 19 244 -12 271 -3 l 671 825 b 650 885 681 847 672 874 z "},"¼":{"ha":831,"x_min":0,"x_max":0,"o":"m 160 749 l 160 428 b 200 388 160 406 178 388 b 240 428 222 388 240 406 l 240 844 b 215 882 240 863 232 875 b 172 872 197 889 183 885 l 49 750 b 38 721 42 742 38 732 b 49 693 38 710 42 700 b 76 682 56 686 65 682 b 106 693 88 682 97 686 b 122 710 111 697 117 703 b 160 749 132 719 144 733 z m 744 190 l 713 190 l 713 233 b 672 274 713 256 694 274 b 632 233 650 274 632 256 l 632 190 l 551 190 b 614 343 567 228 592 289 b 654 440 626 374 640 406 b 657 456 656 446 657 450 b 632 493 657 474 649 486 b 579 471 611 503 589 492 l 456 165 b 460 128 450 153 451 140 b 493 110 467 115 478 110 l 632 110 l 632 39 b 672 -1 632 17 650 -1 b 713 39 694 -1 713 17 l 713 110 l 744 110 b 785 150 767 110 785 128 b 744 190 785 172 767 190 z m 608 885 b 549 864 586 894 560 886 l 160 58 b 181 -1 149 36 158 10 b 240 19 203 -12 229 -3 l 629 825 b 608 885 639 847 631 874 z "},"½":{"ha":828,"x_min":0,"x_max":0,"o":"m 160 749 l 160 428 b 200 388 160 406 178 388 b 240 428 222 388 240 406 l 240 844 b 215 882 240 863 232 875 b 172 872 197 889 183 885 l 49 750 b 38 721 42 742 38 732 b 49 693 38 710 42 700 b 76 682 56 686 65 682 b 106 693 88 682 97 686 b 122 710 111 697 117 703 b 160 749 132 719 144 733 z m 760 285 b 778 389 781 317 786 351 b 715 475 769 428 749 457 b 610 492 683 494 647 500 b 525 426 572 482 544 460 b 540 372 514 408 519 383 b 594 388 561 361 583 367 b 631 414 604 401 615 410 b 674 407 646 418 661 417 b 700 371 689 397 697 386 b 693 328 704 356 703 340 l 526 65 b 519 46 522 60 519 53 b 525 25 519 39 521 32 b 560 4 532 11 544 4 l 742 4 b 782 44 764 4 782 22 b 742 85 782 67 764 85 l 633 85 b 714 211 656 119 688 168 b 760 285 729 235 744 260 z m 608 885 b 549 864 586 894 560 886 l 160 58 b 181 -1 149 36 158 10 b 240 19 203 -12 229 -3 l 629 825 b 608 885 639 847 631 874 z "},"¹":{"ha":325,"x_min":0,"x_max":0,"o":"m 215 882 b 172 872 197 889 183 885 l 49 750 b 38 721 42 742 38 732 b 49 693 38 710 42 700 b 76 682 56 686 65 682 b 106 693 88 682 97 686 b 122 710 111 697 117 703 b 160 749 132 719 144 733 l 160 428 b 200 388 160 406 178 388 b 240 428 222 388 240 406 l 240 844 b 215 882 240 863 232 875 z "},"²":{"ha":413,"x_min":0,"x_max":0,"o":"m 315 674 b 333 778 336 706 342 740 b 271 864 325 817 304 846 b 165 881 239 883 203 889 b 81 815 128 871 100 849 b 96 761 69 797 75 772 b 150 776 117 750 139 756 b 186 803 160 790 171 799 b 229 796 201 807 217 806 b 256 760 244 786 253 775 b 249 717 260 744 258 729 l 82 454 b 75 435 78 449 75 442 b 81 414 75 428 76 421 b 115 393 88 400 100 393 l 297 393 b 338 433 319 393 338 411 b 297 474 338 456 319 474 l 189 474 b 269 600 211 508 243 557 b 315 674 285 624 300 649 z "},"³":{"ha":411,"x_min":0,"x_max":0,"o":"m 296 650 b 317 679 304 658 311 668 b 336 747 329 700 336 724 b 317 815 336 771 329 794 b 199 885 293 858 247 885 b 79 815 150 885 106 858 b 94 761 68 797 74 772 b 149 776 115 750 138 756 b 199 804 161 794 178 804 b 249 776 219 804 236 794 b 249 718 258 757 258 738 b 199 690 236 700 219 690 b 158 650 176 690 158 672 b 199 610 158 628 176 610 b 256 553 231 610 256 585 l 256 525 b 214 469 256 499 240 476 b 149 496 188 463 164 474 b 94 511 138 517 115 522 b 79 457 74 500 68 475 b 235 393 111 403 174 376 b 336 525 294 408 336 463 l 336 553 b 296 650 336 590 322 624 z "},"ª":{"ha":424,"x_min":0,"x_max":0,"o":"m 249 879 b 93 815 188 896 125 869 b 108 761 82 797 88 772 b 163 776 129 750 151 756 b 228 803 178 799 201 810 b 269 747 254 796 269 774 l 269 690 l 213 690 b 75 553 135 690 75 626 b 213 415 75 475 135 415 l 310 415 b 350 456 332 415 350 433 l 350 747 b 249 879 350 810 308 864 z m 156 553 b 213 610 156 585 181 610 l 269 610 l 269 496 l 213 496 b 156 553 181 496 156 521 z "},"º":{"ha":424,"x_min":0,"x_max":0,"o":"m 213 885 b 75 747 135 885 75 821 l 75 553 b 213 415 75 475 135 415 b 350 553 286 415 350 475 l 350 747 b 213 885 350 821 286 885 z m 213 496 b 156 553 181 496 156 521 l 156 747 b 213 804 156 779 181 804 b 269 747 244 804 269 779 l 269 553 b 213 496 269 521 244 496 z "},"§":{"ha":578,"x_min":0,"x_max":0,"o":"m 403 532 l 247 657 b 217 718 229 672 218 692 b 246 781 217 744 226 765 b 311 799 265 797 288 803 b 368 760 336 794 356 781 b 428 743 381 739 407 731 b 444 804 450 756 457 783 b 326 886 418 849 376 876 b 188 847 276 896 225 881 b 128 717 149 815 128 767 b 168 610 129 675 143 639 b 115 514 140 585 122 553 b 175 350 103 453 126 390 l 176 350 l 332 226 b 361 165 351 211 361 192 b 333 103 363 142 351 118 b 268 85 314 86 292 81 b 211 124 243 89 224 103 b 151 140 199 144 172 151 b 135 79 129 128 122 100 b 253 -3 161 35 203 7 b 392 36 304 -11 351 1 b 450 167 431 68 451 117 b 411 274 450 207 438 243 b 464 369 438 300 457 332 b 403 532 476 431 453 493 z m 342 332 l 231 421 b 201 499 206 440 196 467 b 238 551 206 519 218 538 l 349 463 b 376 385 371 444 382 414 b 342 332 372 364 360 344 z "},"φ":{"ha":756,"x_min":0,"x_max":0,"o":"m 576 710 l 618 782 b 601 843 629 803 622 831 b 540 826 581 856 553 847 l 499 754 b 378 778 460 769 419 778 b 56 456 199 778 56 632 b 179 201 56 351 103 261 l 138 129 b 154 68 125 107 133 81 b 215 85 175 56 203 63 l 257 157 b 378 133 296 142 336 133 b 606 228 465 133 544 167 b 700 456 667 289 700 368 b 576 710 700 560 653 650 z m 144 456 b 378 689 144 585 249 689 b 454 676 404 689 431 685 l 225 279 b 144 456 175 322 144 385 z m 543 290 b 378 222 497 244 443 222 b 301 235 350 222 325 226 l 531 632 b 611 456 581 589 611 526 b 543 290 611 393 586 335 z "},"P":{"ha":556,"x_min":0,"x_max":0,"o":"m 94 839 l 94 39 b 139 -6 94 13 113 -6 b 183 39 165 -6 183 13 l 183 383 l 306 383 b 517 594 422 383 517 478 l 517 672 b 306 883 517 789 422 883 l 139 883 b 94 839 113 883 94 865 z m 428 672 l 428 594 b 306 472 428 526 372 472 l 183 472 l 183 794 l 306 794 b 428 672 372 794 428 739 z "},"~":{"ha":578,"x_min":0,"x_max":0,"o":"m 500 421 b 442 410 479 433 454 431 b 388 374 429 390 411 378 b 324 389 364 369 342 374 l 307 401 b 178 432 269 429 222 442 b 67 360 129 425 93 400 b 79 301 54 339 58 314 b 138 313 100 286 125 292 b 192 349 150 332 168 344 b 256 333 215 353 238 349 l 272 321 b 401 290 311 292 354 282 b 513 363 446 297 486 324 b 500 421 525 383 521 408 z "},"¤":{"ha":578,"x_min":0,"x_max":0,"o":"m 289 244 b 403 278 332 244 371 257 l 454 228 b 485 214 463 218 472 214 b 517 228 497 214 508 218 b 531 258 526 236 531 246 b 517 290 531 271 526 282 l 467 342 b 500 456 488 374 500 413 b 467 569 500 499 488 538 l 517 621 b 531 651 526 629 531 639 b 517 683 531 664 526 675 b 485 696 508 692 497 696 b 454 683 472 696 463 692 l 403 633 b 289 667 371 654 332 667 b 175 633 246 667 207 654 l 124 683 b 92 696 115 692 104 696 b 61 683 79 696 69 692 b 47 651 51 675 47 664 b 61 621 47 639 51 629 l 111 569 b 78 456 90 538 78 499 b 111 342 78 413 90 374 l 61 290 b 47 258 51 282 47 271 b 61 228 47 246 51 236 b 92 214 69 218 79 214 b 124 228 104 214 115 218 l 175 278 b 289 244 207 257 246 244 z m 411 456 b 289 333 411 388 357 333 b 167 456 221 333 167 388 b 289 578 167 522 221 578 b 411 456 357 578 411 522 z "}}}
